<?xml version="1.0" standalone="no"?>
<!DOCTYPE svg PUBLIC "-//W3C//DTD SVG 20010904//EN"
 "http://www.w3.org/TR/2001/REC-SVG-20010904/DTD/svg10.dtd">
<svg version="1.0" xmlns="http://www.w3.org/2000/svg"
 width="300.000000pt" height="300.000000pt" viewBox="0 0 300.000000 300.000000"
 preserveAspectRatio="xMidYMid meet">
<metadata>
Created by potrace 1.10, written by Peter Selinger 2001-2011
</metadata>
<g transform="translate(0.000000,300.000000) scale(0.100000,-0.100000)"
fill="#000000" stroke="none">
<path d="M1469 2753 c-2 -113 0 -122 19 -149 20 -26 91 -49 126 -40 14 3 38
17 53 30 26 23 28 29 33 130 l5 106 -31 0 -31 0 -5 -90 c-6 -99 -16 -120 -59
-120 -43 0 -52 28 -47 132 l5 88 -33 0 -34 0 -1 -87z"/>
<path d="M1225 2809 c-60 -11 -111 -22 -113 -24 -3 -2 -2 -15 2 -28 5 -23 9
-24 48 -17 24 5 44 7 45 6 2 -1 11 -48 20 -105 l18 -102 30 7 c16 3 31 7 32 8
1 1 -6 48 -16 104 l-18 101 43 7 c41 6 44 8 42 35 -1 16 -7 29 -13 28 -5 0
-59 -10 -120 -20z"/>
<path d="M1835 2807 c-18 -57 -55 -233 -51 -244 3 -7 17 -13 30 -13 21 0 27 7
36 40 12 44 35 53 45 18 20 -73 53 -108 100 -108 23 0 20 47 -4 55 -24 7 -47
65 -27 65 7 0 25 9 40 21 21 17 26 29 26 64 0 55 -18 69 -120 95 -52 13 -72
15 -75 7z m113 -73 c12 -8 22 -21 22 -29 0 -22 -37 -42 -70 -37 -29 4 -31 7
-24 36 3 17 8 34 11 39 7 12 37 8 61 -9z"/>
<path d="M929 2723 c-19 -5 -29 -84 -29 -221 l0 -83 30 16 c23 12 30 22 30 44
0 24 6 31 46 46 45 17 46 17 69 -5 22 -21 24 -21 55 -5 l33 17 -99 99 c-54 54
-103 98 -109 98 -5 -1 -17 -3 -26 -6z m91 -140 c0 -5 -13 -14 -30 -20 l-30
-11 0 54 0 55 30 -34 c17 -19 30 -39 30 -44z"/>
<path d="M2170 2604 c-136 -121 -127 -110 -93 -128 28 -14 31 -13 50 5 l20 21
50 -25 c45 -23 49 -29 46 -54 -4 -24 0 -31 22 -41 15 -7 29 -11 31 -9 2 2 6
55 9 118 3 62 8 126 10 141 4 22 -1 31 -23 42 -26 14 -29 12 -122 -70z m85
-41 c-4 -27 -8 -49 -10 -51 -2 -2 -17 4 -34 12 l-30 16 37 35 c20 19 39 35 41
35 2 0 0 -21 -4 -47z"/>
<path d="M697 2624 l-28 -15 50 -72 c28 -39 49 -72 47 -74 -1 -1 -43 18 -94
43 l-92 45 -30 -22 c-29 -22 -29 -22 -11 -48 10 -14 43 -65 73 -113 l55 -87
26 18 27 17 -49 75 c-27 41 -48 75 -46 77 1 2 29 -10 61 -27 108 -54 132 -61
159 -49 14 6 25 15 25 20 0 5 -25 47 -56 94 -30 47 -60 96 -66 110 -13 28 -14
28 -51 8z"/>
<path d="M2415 2451 c-42 -55 -77 -102 -78 -105 -1 -2 32 -29 73 -59 l75 -56
17 22 c16 21 15 22 -33 54 -27 19 -49 36 -49 39 0 3 29 43 65 89 l65 83 -25
16 c-13 9 -26 16 -29 16 -3 0 -39 -45 -81 -99z"/>
<path d="M438 2318 c-222 -274 -324 -645 -273 -993 29 -199 99 -383 207 -544
44 -64 52 -71 65 -58 13 12 9 22 -31 83 -300 446 -282 1013 45 1454 32 44 59
85 59 90 0 25 -41 6 -72 -32z"/>
<path d="M2584 2345 c-4 -9 7 -30 24 -50 99 -111 194 -300 244 -480 32 -117
33 -125 33 -315 0 -189 -1 -199 -33 -315 -35 -131 -98 -270 -168 -377 -42 -63
-51 -98 -24 -98 14 0 88 115 138 215 99 196 137 378 129 625 -8 280 -85 504
-252 733 -55 75 -80 92 -91 62z"/>
<path d="M1465 2214 c-84 -103 -199 -271 -240 -351 -16 -32 -31 -60 -32 -62
-1 -2 -25 11 -53 28 -46 29 -206 100 -256 115 -20 6 -22 2 -29 -60 -11 -109
-7 -353 9 -439 29 -164 96 -280 203 -351 33 -22 77 -60 99 -84 106 -120 208
-175 347 -186 226 -19 440 122 518 341 80 226 -7 492 -285 879 -52 72 -121
159 -153 194 l-58 62 -70 -86z m150 -113 c163 -208 290 -424 347 -594 28 -84
30 -100 26 -187 -4 -74 -11 -108 -32 -154 -82 -184 -241 -286 -425 -273 -42 3
-102 15 -133 27 -71 26 -157 94 -183 145 -12 23 -35 45 -60 57 -102 52 -164
130 -207 258 -18 55 -22 96 -26 268 -3 131 -1 202 6 202 19 0 148 -64 203
-101 70 -47 146 -130 172 -189 26 -56 33 -201 15 -279 l-13 -54 -90 149 c-81
134 -167 245 -180 233 -23 -23 62 -247 136 -357 51 -76 169 -191 234 -227 80
-45 132 -54 165 -26 22 18 23 20 6 21 -26 0 -144 65 -188 103 l-37 32 22 60
c17 49 21 83 22 185 0 120 -1 128 -32 192 -17 37 -50 87 -72 111 -23 24 -41
48 -41 52 0 12 88 161 139 235 75 108 153 202 161 193 4 -4 33 -41 65 -82z
m-426 -760 c56 -95 88 -131 116 -131 18 0 22 -4 18 -20 -8 -32 -20 -33 -48 -3
-36 39 -110 150 -129 196 -23 55 -4 37 43 -42z"/>
<path d="M552 719 l-84 -99 24 -20 c24 -20 38 -25 38 -12 0 4 12 20 26 36 l25
29 35 -34 c33 -32 35 -32 52 -15 16 17 15 19 -20 50 l-37 32 24 30 24 29 40
-40 41 -39 20 20 20 20 -69 57 c-38 31 -71 57 -73 56 -2 0 -41 -45 -86 -100z"/>
<path d="M2398 789 c-67 -35 -91 -107 -51 -151 15 -17 26 -19 68 -14 98 13
100 12 103 -10 2 -16 -6 -25 -31 -38 -19 -9 -40 -16 -47 -16 -10 0 -6 -36 6
-48 10 -12 70 15 100 44 43 44 47 92 9 129 -28 29 -43 30 -92 10 -41 -17 -69
-19 -78 -5 -10 17 13 47 46 59 22 8 30 15 25 27 -3 8 -6 20 -6 25 0 13 -10 11
-52 -12z"/>
<path d="M773 592 c-63 -115 -77 -142 -72 -146 2 -2 39 -22 81 -45 74 -41 77
-41 87 -22 16 28 16 28 -39 56 -27 14 -50 28 -50 31 0 3 20 43 45 88 25 46 45
85 45 88 0 3 -11 13 -24 22 l-25 16 -48 -88z"/>
<path d="M2132 608 c-34 -18 -62 -35 -62 -39 0 -5 117 -217 125 -227 2 -2 15
4 29 13 l26 17 -22 40 c-18 32 -20 41 -8 48 9 5 24 0 45 -16 37 -28 81 -31
113 -8 19 13 21 19 11 31 -8 9 -21 12 -35 9 -24 -6 -74 11 -74 25 0 4 5 11 10
14 17 11 11 71 -11 99 -28 36 -70 34 -147 -6z m108 -48 c9 -17 6 -24 -16 -45
-35 -33 -41 -32 -61 11 -15 31 -15 36 -3 44 26 17 69 11 80 -10z"/>
<path d="M1984 546 l-31 -9 29 -90 c27 -84 28 -91 13 -114 -12 -17 -24 -23
-43 -21 -31 4 -44 26 -72 126 -20 70 -22 72 -48 66 -15 -4 -29 -9 -31 -11 -6
-4 36 -148 52 -182 7 -14 27 -34 45 -44 30 -17 38 -18 74 -7 23 6 54 25 70 40
36 36 36 69 0 175 l-27 80 -31 -9z"/>
<path d="M1000 448 c-47 -55 -86 -105 -88 -110 -2 -4 9 -13 25 -19 24 -9 30
-7 48 15 l20 25 48 -17 c40 -14 47 -21 47 -44 0 -26 23 -48 49 -48 12 0 4 269
-8 282 -3 4 -17 9 -31 12 -22 5 -35 -6 -110 -96z m97 -65 c-8 -7 -57 9 -57 19
0 5 12 26 28 46 l27 36 3 -48 c2 -27 1 -50 -1 -53z"/>
<path d="M1219 501 c-5 -23 52 -265 64 -273 6 -4 23 -8 37 -8 21 0 31 11 62
73 21 39 51 96 68 125 19 33 26 52 18 52 -7 0 -23 3 -35 6 -20 5 -27 -4 -65
-80 -23 -47 -45 -86 -48 -86 -3 0 -12 41 -20 92 -15 92 -15 92 -47 99 -18 3
-34 4 -34 0z"/>
<path d="M1562 463 c-42 -20 -62 -59 -62 -118 0 -57 21 -100 60 -120 37 -19
113 -19 149 0 54 27 75 111 47 180 -28 67 -120 95 -194 58z m116 -54 c53 -57
26 -149 -44 -149 -67 0 -100 95 -49 145 30 30 68 32 93 4z"/>
</g>
</svg>
