<?xml version="1.0" encoding="UTF-8"?>
<svg version="1.1" xmlns="http://www.w3.org/2000/svg" width="500" height="500">
<path d="M0 0 C32.72022031 -0.73366419 64.52119239 4.81596459 94.56689453 18.05761719 C95.26443848 18.3645752 95.96198242 18.6715332 96.68066406 18.98779297 C104.99778461 22.68818333 112.91393479 26.57828386 120.46533203 31.70996094 C122.61581716 33.2105416 122.61581716 33.2105416 125.56689453 34.05761719 C125.56689453 34.71761719 125.56689453 35.37761719 125.56689453 36.05761719 C126.09798828 36.14140625 126.62908203 36.22519531 127.17626953 36.31152344 C130.46017518 37.33640249 132.96098515 39.08772843 135.81689453 40.99511719 C136.89455078 41.70539063 137.97220703 42.41566406 139.08251953 43.14746094 C139.90236328 43.7778125 140.72220703 44.40816406 141.56689453 45.05761719 C141.56689453 45.71761719 141.56689453 46.37761719 141.56689453 47.05761719 C142.16501953 47.34636719 142.76314453 47.63511719 143.37939453 47.93261719 C145.56689453 49.05761719 145.56689453 49.05761719 148.56689453 51.05761719 C148.56689453 51.71761719 148.56689453 52.37761719 148.56689453 53.05761719 C149.14342773 53.30962891 149.71996094 53.56164062 150.31396484 53.82128906 C152.85166969 55.21389172 154.56457752 56.79645097 156.61376953 58.83886719 C157.37302734 59.59401611 158.13228516 60.34916504 158.91455078 61.12719727 C160.10371094 62.33025513 160.10371094 62.33025513 161.31689453 63.55761719 C162.12513672 64.37190186 162.93337891 65.18618652 163.76611328 66.02514648 C177.71843931 80.21067083 177.71843931 80.21067083 180.56689453 88.05761719 C181.22689453 88.05761719 181.88689453 88.05761719 182.56689453 88.05761719 C184.29345703 90.35839844 184.29345703 90.35839844 186.19189453 93.37011719 C187.13935547 94.84931641 187.13935547 94.84931641 188.10595703 96.35839844 C189.56689453 99.05761719 189.56689453 99.05761719 189.56689453 102.05761719 C190.22689453 102.05761719 190.88689453 102.05761719 191.56689453 102.05761719 C192.00259766 102.92902344 192.43830078 103.80042969 192.88720703 104.69824219 C193.17208984 105.26760498 193.45697266 105.83696777 193.75048828 106.42358398 C194.3872028 107.69783865 195.02258348 108.97276053 195.65673828 110.24829102 C197.11610636 113.17974578 198.58805638 116.09754821 200.12158203 118.99121094 C211.45535601 140.58664514 217.62747118 164.60998933 220.30053711 188.73364258 C220.53982871 190.8214673 220.83132922 192.90315095 221.12939453 194.98339844 C226.17912024 235.38120408 215.16458942 282.2160728 193.94970703 316.70214844 C192.44402289 319.08026062 192.44402289 319.08026062 191.56689453 322.05761719 C190.90689453 322.05761719 190.24689453 322.05761719 189.56689453 322.05761719 C189.25751953 323.00636719 188.94814453 323.95511719 188.62939453 324.93261719 C187.56689453 328.05761719 187.56689453 328.05761719 186.56689453 330.05761719 C185.90689453 330.05761719 185.24689453 330.05761719 184.56689453 330.05761719 C184.31939453 330.75886719 184.07189453 331.46011719 183.81689453 332.18261719 C182.39509215 335.45276266 180.69443165 338.19873919 178.56689453 341.05761719 C177.90689453 341.05761719 177.24689453 341.05761719 176.56689453 341.05761719 C175.90689453 342.70761719 175.24689453 344.35761719 174.56689453 346.05761719 C173.90689453 346.05761719 173.24689453 346.05761719 172.56689453 346.05761719 C172.29876953 346.64027344 172.03064453 347.22292969 171.75439453 347.82324219 C170.55208463 350.08548319 169.22863541 351.86338036 167.56689453 353.80761719 C167.05126953 354.42121094 166.53564453 355.03480469 166.00439453 355.66699219 C164.56689453 357.05761719 164.56689453 357.05761719 162.56689453 357.05761719 C162.56689453 357.71761719 162.56689453 358.37761719 162.56689453 359.05761719 C161.90689453 359.05761719 161.24689453 359.05761719 160.56689453 359.05761719 C160.56689453 359.71761719 160.56689453 360.37761719 160.56689453 361.05761719 C159.90689453 361.05761719 159.24689453 361.05761719 158.56689453 361.05761719 C158.56689453 361.71761719 158.56689453 362.37761719 158.56689453 363.05761719 C157.90689453 363.05761719 157.24689453 363.05761719 156.56689453 363.05761719 C156.56689453 363.71761719 156.56689453 364.37761719 156.56689453 365.05761719 C155.90689453 365.05761719 155.24689453 365.05761719 154.56689453 365.05761719 C154.56689453 365.71761719 154.56689453 366.37761719 154.56689453 367.05761719 C153.90689453 367.05761719 153.24689453 367.05761719 152.56689453 367.05761719 C152.56689453 367.71761719 152.56689453 368.37761719 152.56689453 369.05761719 C148.0963063 373.05761719 148.0963063 373.05761719 145.56689453 373.05761719 C145.56689453 373.71761719 145.56689453 374.37761719 145.56689453 375.05761719 C143.88720703 376.56542969 143.88720703 376.56542969 141.69189453 378.18261719 C140.97259766 378.72144531 140.25330078 379.26027344 139.51220703 379.81542969 C137.56689453 381.05761719 137.56689453 381.05761719 135.56689453 381.05761719 C135.56689453 381.71761719 135.56689453 382.37761719 135.56689453 383.05761719 C133.16203714 384.86199973 130.7642409 386.53704298 128.25439453 388.18261719 C127.56410156 388.65054687 126.87380859 389.11847656 126.16259766 389.60058594 C125.49550781 390.04273438 124.82841797 390.48488281 124.14111328 390.94042969 C123.52840576 391.34664551 122.91569824 391.75286133 122.28442383 392.17138672 C120.56689453 393.05761719 120.56689453 393.05761719 117.56689453 393.05761719 C117.56689453 393.71761719 117.56689453 394.37761719 117.56689453 395.05761719 C116.35453125 395.65509766 116.35453125 395.65509766 115.11767578 396.26464844 C114.04904297 396.79445313 112.98041016 397.32425781 111.87939453 397.87011719 C110.82365234 398.3921875 109.76791016 398.91425781 108.68017578 399.45214844 C105.62879986 400.97480801 105.62879986 400.97480801 103.07080078 402.60058594 C100.19681732 404.27296633 97.30877764 405.40266763 94.19189453 406.55761719 C90.82663027 407.81055567 87.51011541 409.08262388 84.22314453 410.53027344 C39.07570696 429.3899402 -13.4560208 427.30108761 -59.43310547 413.05761719 C-60.11969238 412.84492188 -60.8062793 412.63222656 -61.51367188 412.41308594 C-69.6050277 409.84505901 -77.06363577 406.42110084 -84.56982422 402.51074219 C-87.39540129 400.98832784 -87.39540129 400.98832784 -90.43310547 400.05761719 C-90.43310547 399.39761719 -90.43310547 398.73761719 -90.43310547 398.05761719 C-91.09826172 397.98929687 -91.76341797 397.92097656 -92.44873047 397.85058594 C-96.54173692 396.76304627 -99.65299618 394.66153337 -103.18310547 392.37011719 C-104.24174805 391.69335938 -104.24174805 391.69335938 -105.32177734 391.00292969 C-106.72257958 390.10507848 -108.12108576 389.20363333 -109.51708984 388.29833984 C-111.16424082 387.23172144 -112.82119699 386.18027216 -114.47998047 385.13183594 C-119.02602843 382.2145472 -119.02602843 382.2145472 -120.43310547 381.05761719 C-120.43310547 380.39761719 -120.43310547 379.73761719 -120.43310547 379.05761719 C-120.99513672 378.80238281 -121.55716797 378.54714844 -122.13623047 378.28417969 C-130.5249847 373.80447079 -137.43163502 366.26010051 -144.12060547 359.62011719 C-144.84022461 358.90968262 -145.55984375 358.19924805 -146.30126953 357.46728516 C-146.96739258 356.79713379 -147.63351563 356.12698242 -148.31982422 355.43652344 C-148.92012451 354.83396729 -149.5204248 354.23141113 -150.13891602 353.6105957 C-151.43310547 352.05761719 -151.43310547 352.05761719 -151.43310547 350.05761719 C-152.09310547 350.05761719 -152.75310547 350.05761719 -153.43310547 350.05761719 C-155.18954925 348.03117951 -156.82024569 346.00600436 -158.43310547 343.87011719 C-158.88427734 343.29197266 -159.33544922 342.71382813 -159.80029297 342.11816406 C-162.26436267 338.89227399 -164.14094415 335.95612663 -165.43310547 332.05761719 C-166.09310547 332.05761719 -166.75310547 332.05761719 -167.43310547 332.05761719 C-167.43310547 331.06761719 -167.43310547 330.07761719 -167.43310547 329.05761719 C-168.09310547 329.05761719 -168.75310547 329.05761719 -169.43310547 329.05761719 C-169.77341797 328.42597656 -170.11373047 327.79433594 -170.46435547 327.14355469 C-173.06277337 322.34753866 -175.69992951 317.58797394 -178.46362305 312.88476562 C-183.48479115 304.2987701 -187.18852714 295.42230567 -190.65893555 286.12402344 C-191.15812925 284.79158084 -191.66156007 283.46071427 -192.17016602 282.13183594 C-202.32542038 255.5326323 -204.11350546 228.34511289 -203.43310547 200.05761719 C-203.41908691 199.35378906 -203.40506836 198.64996094 -203.390625 197.92480469 C-202.98835611 181.80087215 -199.67319514 165.66285257 -195.30810547 150.18261719 C-195.05456299 149.27882324 -194.80102051 148.3750293 -194.53979492 147.44384766 C-193.15080486 142.74173339 -193.15080486 142.74173339 -192.43310547 141.05761719 C-191.77310547 140.72761719 -191.11310547 140.39761719 -190.43310547 140.05761719 C-190.32998047 139.10886719 -190.22685547 138.16011719 -190.12060547 137.18261719 C-189.47027507 131.67723395 -186.85184906 126.97917835 -184.43310547 122.05761719 C-183.93037109 121.02507812 -183.42763672 119.99253906 -182.90966797 118.92871094 C-180.24902027 113.5331335 -177.49361812 108.23694629 -174.43310547 103.05761719 C-173.77310547 103.05761719 -173.11310547 103.05761719 -172.43310547 103.05761719 C-172.30742187 102.01541016 -172.30742187 102.01541016 -172.17919922 100.95214844 C-171.24522026 97.32870128 -169.58605829 94.84110428 -167.49560547 91.74511719 C-166.78533203 90.67648438 -166.07505859 89.60785156 -165.34326172 88.50683594 C-164.71291016 87.69859375 -164.08255859 86.89035156 -163.43310547 86.05761719 C-162.77310547 86.05761719 -162.11310547 86.05761719 -161.43310547 86.05761719 C-161.18560547 85.32800781 -160.93810547 84.59839844 -160.68310547 83.84667969 C-159.31277627 80.78913267 -157.71410668 78.87295304 -155.43310547 76.43261719 C-153.18872053 74.01495252 -151.26868229 71.81098241 -149.43310547 69.05761719 C-148.77310547 69.05761719 -148.11310547 69.05761719 -147.43310547 69.05761719 C-147.43310547 68.39761719 -147.43310547 67.73761719 -147.43310547 67.05761719 C-146.77310547 67.05761719 -146.11310547 67.05761719 -145.43310547 67.05761719 C-145.18560547 66.48011719 -144.93810547 65.90261719 -144.68310547 65.30761719 C-143.25010558 62.72821739 -141.6488587 60.99640127 -139.43310547 59.05761719 C-138.77310547 59.05761719 -138.11310547 59.05761719 -137.43310547 59.05761719 C-137.43310547 58.39761719 -137.43310547 57.73761719 -137.43310547 57.05761719 C-135.97216797 55.54980469 -135.97216797 55.54980469 -134.05810547 53.93261719 C-133.43162109 53.39378906 -132.80513672 52.85496094 -132.15966797 52.29980469 C-130.43310547 51.05761719 -130.43310547 51.05761719 -128.43310547 51.05761719 C-128.43310547 50.39761719 -128.43310547 49.73761719 -128.43310547 49.05761719 C-126.75341797 47.54980469 -126.75341797 47.54980469 -124.55810547 45.93261719 C-123.83880859 45.39378906 -123.11951172 44.85496094 -122.37841797 44.29980469 C-120.43310547 43.05761719 -120.43310547 43.05761719 -118.43310547 43.05761719 C-118.10310547 42.06761719 -117.77310547 41.07761719 -117.43310547 40.05761719 C-115.02012463 38.39851094 -112.64633298 36.89749189 -110.12060547 35.43261719 C-109.44320312 35.02527344 -108.76580078 34.61792969 -108.06787109 34.19824219 C-104.85439125 32.30093835 -102.11084885 30.84067617 -98.43310547 30.05761719 C-98.43310547 29.39761719 -98.43310547 28.73761719 -98.43310547 28.05761719 C-66.97962422 12.57483242 -35.49555902 0.84055307 0 0 Z M-59.43310547 24.05761719 C-61.15013672 24.62416016 -61.15013672 24.62416016 -62.90185547 25.20214844 C-79.87033289 31.26537964 -95.5066745 41.10666321 -110.43310547 51.05761719 C-110.43310547 51.71761719 -110.43310547 52.37761719 -110.43310547 53.05761719 C-111.44050781 53.35925781 -111.44050781 53.35925781 -112.46826172 53.66699219 C-116.53961165 55.57661086 -119.53141071 58.33130601 -122.87060547 61.30761719 C-123.51320313 61.86835937 -124.15580078 62.42910156 -124.81787109 63.00683594 C-128.84385691 66.54643362 -132.77070142 70.14048643 -136.43310547 74.05761719 C-136.43310547 74.71761719 -136.43310547 75.37761719 -136.43310547 76.05761719 C-137.09310547 76.05761719 -137.75310547 76.05761719 -138.43310547 76.05761719 C-138.43310547 76.71761719 -138.43310547 77.37761719 -138.43310547 78.05761719 C-139.09310547 78.05761719 -139.75310547 78.05761719 -140.43310547 78.05761719 C-140.43310547 78.71761719 -140.43310547 79.37761719 -140.43310547 80.05761719 C-141.09310547 80.05761719 -141.75310547 80.05761719 -142.43310547 80.05761719 C-142.43310547 80.71761719 -142.43310547 81.37761719 -142.43310547 82.05761719 C-143.09310547 82.05761719 -143.75310547 82.05761719 -144.43310547 82.05761719 C-145.81752546 84.02260041 -147.14514381 86.02810184 -148.43310547 88.05761719 C-149.01060547 88.80011719 -149.58810547 89.54261719 -150.18310547 90.30761719 C-151.62685153 91.97043146 -151.62685153 91.97043146 -151.43310547 94.05761719 C-152.09310547 94.05761719 -152.75310547 94.05761719 -153.43310547 94.05761719 C-155.22285949 96.50208464 -156.87476222 98.94089369 -158.49560547 101.49511719 C-158.98367676 102.25920898 -159.47174805 103.02330078 -159.97460938 103.81054688 C-167.4801687 115.72669017 -173.64381405 127.81551261 -178.43310547 141.05761719 C-178.94873047 142.21261719 -179.46435547 143.36761719 -179.99560547 144.55761719 C-184.15815452 154.69251924 -186.62727003 165.27479633 -188.43310547 176.05761719 C-188.60302002 176.99806885 -188.77293457 177.93852051 -188.94799805 178.9074707 C-190.71201383 189.63493626 -190.87106928 200.26963723 -190.87060547 211.12011719 C-190.87233765 212.08450714 -190.87406982 213.04889709 -190.87585449 214.04251099 C-190.85711906 237.87964491 -187.01875512 259.42512688 -179.43310547 282.05761719 C-178.77310547 282.05761719 -178.11310547 282.05761719 -177.43310547 282.05761719 C-177.36994141 282.82332031 -177.30677734 283.58902344 -177.24169922 284.37792969 C-176.09207241 289.60956472 -173.82597894 294.12895327 -171.49560547 298.93261719 C-171.00777588 299.94461182 -170.51994629 300.95660645 -170.01733398 301.99926758 C-166.90674098 308.33933933 -163.59944467 314.49706254 -159.87060547 320.49511719 C-159.45367432 321.16849121 -159.03674316 321.84186523 -158.60717773 322.53564453 C-157.61061605 324.08429106 -156.53014118 325.57844379 -155.43310547 327.05761719 C-154.77310547 327.05761719 -154.11310547 327.05761719 -153.43310547 327.05761719 C-153.21138672 327.75113281 -152.98966797 328.44464844 -152.76123047 329.15917969 C-151.11175149 332.75892499 -148.77363266 335.48846384 -146.18310547 338.43261719 C-145.6894751 339.00262451 -145.19584473 339.57263184 -144.68725586 340.15991211 C-143.71237866 341.28548567 -142.73531223 342.40916755 -141.75585938 343.53076172 C-140.09356332 345.44955085 -138.48510838 347.41108016 -136.87060547 349.37011719 C-136.06623047 350.25699219 -135.26185547 351.14386719 -134.43310547 352.05761719 C-133.77310547 352.05761719 -133.11310547 352.05761719 -132.43310547 352.05761719 C-132.43310547 352.71761719 -132.43310547 353.37761719 -132.43310547 354.05761719 C-130.75350709 355.83433416 -130.75350709 355.83433416 -128.62060547 357.62011719 C-127.91291016 358.24015625 -127.20521484 358.86019531 -126.47607422 359.49902344 C-124.42037079 361.24186473 -124.42037079 361.24186473 -121.43310547 362.05761719 C-121.43310547 362.71761719 -121.43310547 363.37761719 -121.43310547 364.05761719 C-119.78310547 364.71761719 -118.13310547 365.37761719 -116.43310547 366.05761719 C-116.43310547 366.71761719 -116.43310547 367.37761719 -116.43310547 368.05761719 C-114.33860866 369.69191469 -112.25528456 371.19928953 -110.05810547 372.68261719 C-109.45482422 373.10285156 -108.85154297 373.52308594 -108.22998047 373.95605469 C-105.11596676 376.29122041 -105.11596676 376.29122041 -101.43310547 377.05761719 C-101.43310547 377.71761719 -101.43310547 378.37761719 -101.43310547 379.05761719 C-98.44095825 380.718364 -95.43539677 382.3532771 -92.42382812 383.97851562 C-90.99920439 384.75075464 -89.57730289 385.52802401 -88.15722656 386.30859375 C-75.90974123 393.02613181 -63.74746709 398.79066383 -50.43310547 403.05761719 C-49.23169922 403.44433594 -48.03029297 403.83105469 -46.79248047 404.22949219 C-43.03301201 405.32530138 -39.25886931 406.23364609 -35.43310547 407.05761719 C-34.62389648 407.23953613 -33.8146875 407.42145508 -32.98095703 407.60888672 C2.0162703 415.19439788 39.83757046 412.87419918 73.56689453 401.05761719 C74.22270508 400.82848633 74.87851562 400.59935547 75.55419922 400.36328125 C86.29103273 396.52033149 96.38670078 391.30554242 106.51489258 386.10742188 C108.52620188 385.07843556 110.54464328 384.06490148 112.56689453 383.05761719 C112.56689453 382.39761719 112.56689453 381.73761719 112.56689453 381.05761719 C114.54689453 380.39761719 116.52689453 379.73761719 118.56689453 379.05761719 C118.56689453 378.39761719 118.56689453 377.73761719 118.56689453 377.05761719 C119.55689453 377.05761719 120.54689453 377.05761719 121.56689453 377.05761719 C121.56689453 376.39761719 121.56689453 375.73761719 121.56689453 375.05761719 C122.64970703 374.65542969 122.64970703 374.65542969 123.75439453 374.24511719 C126.56455836 373.05860357 129.0510601 371.7827608 131.56689453 370.05761719 C131.56689453 369.39761719 131.56689453 368.73761719 131.56689453 368.05761719 C133.21689453 367.39761719 134.86689453 366.73761719 136.56689453 366.05761719 C136.56689453 365.39761719 136.56689453 364.73761719 136.56689453 364.05761719 C137.12376953 363.81011719 137.68064453 363.56261719 138.25439453 363.30761719 C140.99100366 361.82836901 143.24340322 360.12294279 145.56689453 358.05761719 C145.56689453 357.39761719 145.56689453 356.73761719 145.56689453 356.05761719 C146.88689453 355.39761719 148.20689453 354.73761719 149.56689453 354.05761719 C149.56689453 353.39761719 149.56689453 352.73761719 149.56689453 352.05761719 C150.22689453 352.05761719 150.88689453 352.05761719 151.56689453 352.05761719 C151.56689453 351.39761719 151.56689453 350.73761719 151.56689453 350.05761719 C152.22689453 350.05761719 152.88689453 350.05761719 153.56689453 350.05761719 C153.56689453 349.39761719 153.56689453 348.73761719 153.56689453 348.05761719 C154.22689453 348.05761719 154.88689453 348.05761719 155.56689453 348.05761719 C155.56689453 347.39761719 155.56689453 346.73761719 155.56689453 346.05761719 C156.22689453 346.05761719 156.88689453 346.05761719 157.56689453 346.05761719 C157.56689453 345.39761719 157.56689453 344.73761719 157.56689453 344.05761719 C158.22689453 344.05761719 158.88689453 344.05761719 159.56689453 344.05761719 C161.29371638 342.00794185 162.91002168 339.95645448 164.50439453 337.80761719 C165.16858398 336.92783203 165.16858398 336.92783203 165.84619141 336.03027344 C166.70626744 334.88948705 167.56236866 333.74569077 168.4140625 332.59863281 C169.38296582 331.3034787 170.37999789 330.02943487 171.38330078 328.76074219 C172.75712058 327.12956137 172.75712058 327.12956137 172.56689453 325.05761719 C173.22689453 325.05761719 173.88689453 325.05761719 174.56689453 325.05761719 C176.15579095 322.75730844 176.15579095 322.75730844 177.75439453 319.80761719 C178.37572266 318.70804687 178.99705078 317.60847656 179.63720703 316.47558594 C180.27400391 315.34765625 180.91080078 314.21972656 181.56689453 313.05761719 C182.75326144 311.07777111 183.94072938 309.0985843 185.12939453 307.12011719 C188.72404887 300.95439843 191.71507565 294.59512012 194.56689453 288.05761719 C194.92525391 287.27386719 195.28361328 286.49011719 195.65283203 285.68261719 C207.48124572 258.42995205 208.98844152 228.25842473 208.56689453 199.05761719 C208.55013672 197.77886719 208.53337891 196.50011719 208.51611328 195.18261719 C207.6704108 175.85227472 203.10362462 155.14725038 194.77783203 137.66308594 C193.63270138 135.19920806 192.64955122 132.72409072 191.69189453 130.18261719 C187.92583408 120.67779795 182.59169078 111.93342475 177.25439453 103.24511719 C176.82175293 102.53274902 176.38911133 101.82038086 175.94335938 101.08642578 C174.87413047 99.37372237 173.72716831 97.70999976 172.56689453 96.05761719 C171.90689453 96.05761719 171.24689453 96.05761719 170.56689453 96.05761719 C170.34001953 95.36023438 170.11314453 94.66285156 169.87939453 93.94433594 C168.28414171 90.43572929 166.0729342 87.75089981 163.56689453 84.87011719 C163.08140137 84.30421875 162.5959082 83.73832031 162.09570312 83.15527344 C157.50125417 77.86189598 152.59940792 72.93554826 147.56689453 68.05761719 C146.72255859 67.208125 145.87822266 66.35863281 145.00830078 65.48339844 C143.01162126 63.49949767 141.00219405 61.59123722 138.87939453 59.74511719 C138.29802734 59.23335937 137.71666016 58.72160156 137.11767578 58.19433594 C135.61851181 56.86055469 135.61851181 56.86055469 133.56689453 57.05761719 C133.56689453 56.39761719 133.56689453 55.73761719 133.56689453 55.05761719 C131.31209515 53.28818334 129.06229424 51.66046676 126.69189453 50.05761719 C125.61790405 49.32720215 125.61790405 49.32720215 124.5222168 48.58203125 C111.8927948 40.13599425 98.45487333 33.17885903 84.56689453 27.05761719 C83.74705078 26.68121094 82.92720703 26.30480469 82.08251953 25.91699219 C38.52750975 6.99309138 -15.26599878 9.25800959 -59.43310547 24.05761719 Z " fill="#101010" transform="translate(241.43310546875,32.9423828125)"/>
<path d="M0 0 C2.67627832 1.22942771 5.35798695 2.20247504 8.14453125 3.15234375 C14.00564086 5.20753803 19.28370792 8.10411454 24.64453125 11.21484375 C24.64453125 11.87484375 24.64453125 12.53484375 24.64453125 13.21484375 C25.21429688 13.33085938 25.7840625 13.446875 26.37109375 13.56640625 C44.74797359 18.80792181 66.69662392 41.24421699 77.64453125 56.21484375 C77.64453125 56.87484375 77.64453125 57.53484375 77.64453125 58.21484375 C78.30453125 58.21484375 78.96453125 58.21484375 79.64453125 58.21484375 C81.48514229 60.63891646 83.20490314 63.06326817 84.89453125 65.58984375 C85.64259033 66.69694702 85.64259033 66.69694702 86.40576172 67.82641602 C90.00670835 73.18789072 93.49453301 78.57377547 96.64453125 84.21484375 C96.99257813 84.8294043 97.340625 85.44396484 97.69921875 86.07714844 C102.31241515 94.27021621 106.38918791 102.13136458 108.79296875 111.28515625 C109.59448817 114.29958325 109.59448817 114.29958325 111.0546875 117.3359375 C113.29072474 122.40724776 114.43088133 127.77684778 115.70703125 133.15234375 C115.96291016 134.17908203 116.21878906 135.20582031 116.48242188 136.26367188 C119.70422511 149.68923241 120.98940105 162.92759578 120.90527344 176.69702148 C120.89451376 178.78073056 120.90527675 180.86358155 120.91796875 182.94726562 C120.93103928 195.06080222 119.64709889 206.94516885 116.95703125 218.77734375 C116.7082019 219.8741748 116.7082019 219.8741748 116.4543457 220.99316406 C112.86996571 236.15504389 108.10863451 250.53065444 100.64453125 264.21484375 C99.80525726 265.94113486 98.97146469 267.67010736 98.14453125 269.40234375 C91.37959882 282.80211375 77.14293836 308.3080853 62.64453125 314.21484375 C62.64453125 314.87484375 62.64453125 315.53484375 62.64453125 316.21484375 C61.98453125 316.21484375 61.32453125 316.21484375 60.64453125 316.21484375 C60.64453125 316.87484375 60.64453125 317.53484375 60.64453125 318.21484375 C59.98453125 318.21484375 59.32453125 318.21484375 58.64453125 318.21484375 C58.64453125 318.87484375 58.64453125 319.53484375 58.64453125 320.21484375 C55.18299279 323.21484375 55.18299279 323.21484375 52.64453125 323.21484375 C52.64453125 323.87484375 52.64453125 324.53484375 52.64453125 325.21484375 C51.98453125 325.21484375 51.32453125 325.21484375 50.64453125 325.21484375 C50.64453125 325.87484375 50.64453125 326.53484375 50.64453125 327.21484375 C45.23276654 331.21484375 45.23276654 331.21484375 42.64453125 331.21484375 C42.64453125 331.87484375 42.64453125 332.53484375 42.64453125 333.21484375 C39.17023908 335.82236864 35.35323805 337.95792864 31.64453125 340.21484375 C30.47451694 340.95194618 29.30526144 341.69025429 28.13671875 342.4296875 C20.41957421 347.25393787 12.6074798 351.21757344 4.203125 354.70703125 C0.7015259 356.13693311 0.7015259 356.13693311 -2.3359375 357.7578125 C-5.83257465 359.44506432 -9.38499184 360.5882969 -13.10546875 361.65234375 C-14.21257202 361.97102417 -14.21257202 361.97102417 -15.34204102 362.29614258 C-65.64942303 376.49302483 -118.10305054 372.08006072 -164.35546875 347.21484375 C-165.36996094 346.69019531 -166.38445312 346.16554688 -167.4296875 345.625 C-173.04245946 342.67379355 -178.22492074 339.35426495 -183.359375 335.6328125 C-185.29429374 334.18151568 -185.29429374 334.18151568 -187.35546875 333.21484375 C-187.35546875 332.55484375 -187.35546875 331.89484375 -187.35546875 331.21484375 C-189.00546875 330.55484375 -190.65546875 329.89484375 -192.35546875 329.21484375 C-192.35546875 328.55484375 -192.35546875 327.89484375 -192.35546875 327.21484375 C-194.00546875 326.55484375 -195.65546875 325.89484375 -197.35546875 325.21484375 C-197.35546875 324.55484375 -197.35546875 323.89484375 -197.35546875 323.21484375 C-197.93296875 322.94671875 -198.51046875 322.67859375 -199.10546875 322.40234375 C-201.41096918 321.18555186 -203.37603067 319.91150496 -205.35546875 318.21484375 C-205.35546875 317.55484375 -205.35546875 316.89484375 -205.35546875 316.21484375 C-206.01546875 316.21484375 -206.67546875 316.21484375 -207.35546875 316.21484375 C-207.35546875 315.55484375 -207.35546875 314.89484375 -207.35546875 314.21484375 C-208.01546875 314.21484375 -208.67546875 314.21484375 -209.35546875 314.21484375 C-210.80078125 312.78125 -210.80078125 312.78125 -212.48046875 310.77734375 C-214.98464778 307.81879821 -217.5362107 304.93513187 -220.16796875 302.08984375 C-236.71705658 283.46011625 -248.59500173 260.79244583 -256.35546875 237.21484375 C-256.68546875 236.23386719 -257.01546875 235.25289062 -257.35546875 234.2421875 C-259.5181995 227.55968742 -260.98247676 221.09101009 -261.921875 214.1328125 C-262.27803857 211.73592792 -262.75116441 209.53649098 -263.41796875 207.21484375 C-268.93093993 186.03114346 -266.65656735 158.83011026 -261.29296875 137.89453125 C-260.76082398 135.80586304 -260.25588145 133.70860829 -259.83984375 131.59375 C-257.48682791 120.03740607 -253.53487329 107.26468178 -247.35546875 97.21484375 C-246.75279298 95.7937194 -246.18558802 94.35660741 -245.66796875 92.90234375 C-245.23484375 91.68546875 -244.80171875 90.46859375 -244.35546875 89.21484375 C-243.69546875 89.21484375 -243.03546875 89.21484375 -242.35546875 89.21484375 C-242.22011719 88.62445313 -242.08476562 88.0340625 -241.9453125 87.42578125 C-239.68076574 78.93748014 -233.76168937 71.92479181 -228.63330078 64.97607422 C-227.73536572 63.73845413 -226.85779143 62.48592964 -225.99560547 61.22314453 C-224.82848938 59.52104673 -223.59677502 57.86361773 -222.35546875 56.21484375 C-221.69546875 56.21484375 -221.03546875 56.21484375 -220.35546875 56.21484375 C-220.11183594 55.65410156 -219.86820313 55.09335938 -219.6171875 54.515625 C-217.04235247 49.82033759 -212.99174357 46.1056578 -209.35546875 42.21484375 C-208.80890625 41.61414063 -208.26234375 41.0134375 -207.69921875 40.39453125 C-197.95188237 30.10015048 -184.77441457 19.90353707 -172.35546875 13.21484375 C-171.36546875 13.21484375 -170.37546875 13.21484375 -169.35546875 13.21484375 C-169.35546875 12.55484375 -169.35546875 11.89484375 -169.35546875 11.21484375 C-145.21049025 -1.44975669 -120.52918442 -9.79055789 -93.35546875 -12.78515625 C-92.5346582 -12.88014404 -91.71384766 -12.97513184 -90.86816406 -13.07299805 C-61.36301971 -16.30317393 -26.95812576 -12.98568576 0 0 Z M-172.20703125 26.13671875 C-175.52094366 28.3240654 -178.89101167 30.2775403 -182.35546875 32.21484375 C-182.35546875 32.87484375 -182.35546875 33.53484375 -182.35546875 34.21484375 C-182.95359375 34.50359375 -183.55171875 34.79234375 -184.16796875 35.08984375 C-186.54874667 36.26226401 -186.54874667 36.26226401 -189.35546875 38.21484375 C-189.35546875 38.87484375 -189.35546875 39.53484375 -189.35546875 40.21484375 C-189.93296875 40.48296875 -190.51046875 40.75109375 -191.10546875 41.02734375 C-193.41096918 42.24413564 -195.37603067 43.51818254 -197.35546875 45.21484375 C-197.35546875 45.87484375 -197.35546875 46.53484375 -197.35546875 47.21484375 C-197.95327148 47.48361328 -198.55107422 47.75238281 -199.16699219 48.02929688 C-201.36544708 49.22024923 -202.68493832 50.35871115 -204.37109375 52.18359375 C-204.89960938 52.75464844 -205.428125 53.32570312 -205.97265625 53.9140625 C-206.51148438 54.50832031 -207.0503125 55.10257813 -207.60546875 55.71484375 C-208.15976563 56.30910156 -208.7140625 56.90335938 -209.28515625 57.515625 C-212.32111462 60.40225628 -212.32111462 60.40225628 -213.35546875 64.21484375 C-214.01546875 64.21484375 -214.67546875 64.21484375 -215.35546875 64.21484375 C-217.19609931 66.63894216 -218.91608155 69.06306658 -220.60546875 71.58984375 C-221.1041748 72.32936279 -221.60288086 73.06888184 -222.11669922 73.83081055 C-223.5394894 75.95246227 -224.94976272 78.08184688 -226.35546875 80.21484375 C-226.93039063 81.07980469 -227.5053125 81.94476563 -228.09765625 82.8359375 C-245.97489738 111.16681963 -254.84692539 144.66348939 -254.66796875 177.96484375 C-254.66548126 178.71007294 -254.66299377 179.45530212 -254.66043091 180.22311401 C-254.49435558 212.48615827 -245.47661908 242.37730118 -229.44384766 270.27392578 C-227.98542805 272.87474137 -226.65643208 275.53240144 -225.35546875 278.21484375 C-224.69546875 278.21484375 -224.03546875 278.21484375 -223.35546875 278.21484375 C-223.10796875 278.91609375 -222.86046875 279.61734375 -222.60546875 280.33984375 C-221.18366637 283.60998923 -219.48300587 286.35596575 -217.35546875 289.21484375 C-216.69546875 289.21484375 -216.03546875 289.21484375 -215.35546875 289.21484375 C-215.35546875 289.87484375 -215.35546875 290.53484375 -215.35546875 291.21484375 C-214.69546875 291.21484375 -214.03546875 291.21484375 -213.35546875 291.21484375 C-212.99001953 292.05595703 -212.99001953 292.05595703 -212.6171875 292.9140625 C-208.74000058 299.98422689 -201.55235737 307.03074302 -195.35546875 312.21484375 C-194.69546875 312.21484375 -194.03546875 312.21484375 -193.35546875 312.21484375 C-193.35546875 312.87484375 -193.35546875 313.53484375 -193.35546875 314.21484375 C-191.37372756 315.97367723 -189.39002861 317.60265803 -187.29296875 319.21484375 C-186.66028076 319.7032373 -186.02759277 320.19163086 -185.37573242 320.69482422 C-173.35615116 329.86910473 -161.24162559 337.09754984 -147.42480469 343.27783203 C-145.70237159 344.05776339 -143.99884244 344.87927837 -142.30078125 345.7109375 C-102.11763555 365.31396147 -50.76314656 363.14696749 -9.35546875 349.21484375 C-5.62550989 347.67246123 -1.99380307 345.96020138 1.64453125 344.21484375 C3.05221024 343.59202682 4.46218779 342.97436447 5.875 342.36328125 C16.32966494 337.72670674 25.43979035 331.96836143 34.64453125 325.21484375 C35.86680424 324.33670588 37.08944909 323.45908532 38.3125 322.58203125 C42.56741221 319.51275525 42.56741221 319.51275525 46.64453125 316.21484375 C46.64453125 315.55484375 46.64453125 314.89484375 46.64453125 314.21484375 C47.20140625 313.96734375 47.75828125 313.71984375 48.33203125 313.46484375 C51.06864038 311.98559557 53.32103994 310.28016936 55.64453125 308.21484375 C55.64453125 307.55484375 55.64453125 306.89484375 55.64453125 306.21484375 C56.30453125 306.21484375 56.96453125 306.21484375 57.64453125 306.21484375 C57.64453125 305.55484375 57.64453125 304.89484375 57.64453125 304.21484375 C58.30453125 304.21484375 58.96453125 304.21484375 59.64453125 304.21484375 C61.31735306 302.59977012 61.31735306 302.59977012 63.01953125 300.52734375 C63.63699219 299.79902344 64.25445312 299.07070313 64.890625 298.3203125 C65.46941406 297.62550781 66.04820312 296.93070312 66.64453125 296.21484375 C67.44890625 295.26609375 68.25328125 294.31734375 69.08203125 293.33984375 C70.84199473 291.38589649 70.84199473 291.38589649 70.64453125 289.21484375 C71.30453125 289.21484375 71.96453125 289.21484375 72.64453125 289.21484375 C72.64453125 288.55484375 72.64453125 287.89484375 72.64453125 287.21484375 C73.30453125 287.21484375 73.96453125 287.21484375 74.64453125 287.21484375 C75.30453125 285.23484375 75.96453125 283.25484375 76.64453125 281.21484375 C77.30453125 281.21484375 77.96453125 281.21484375 78.64453125 281.21484375 C84.49164899 273.65524561 88.53753437 264.79588796 92.64453125 256.21484375 C93.29035156 254.92900391 93.29035156 254.92900391 93.94921875 253.6171875 C105.42863128 229.94558847 110.08180208 204.31732981 110.01953125 178.21484375 C110.01898743 177.35523041 110.0184436 176.49561707 110.0178833 175.60995483 C109.97869735 162.11823104 109.17097291 149.30028275 105.64453125 136.21484375 C105.41427246 135.33828125 105.18401367 134.46171875 104.94677734 133.55859375 C102.53613069 124.55625938 99.83586911 115.82210191 95.71484375 107.4375 C94.75347495 105.44108086 94.02478742 103.50253493 93.33203125 101.40234375 C89.39909448 90.59781522 82.11533426 80.5954297 75.64453125 71.21484375 C75.13535156 70.45558594 74.62617188 69.69632812 74.1015625 68.9140625 C73.00439304 67.30852713 71.83356079 65.75358786 70.64453125 64.21484375 C69.98453125 64.21484375 69.32453125 64.21484375 68.64453125 64.21484375 C67.64453125 62.21484375 66.64453125 60.21484375 65.64453125 58.21484375 C64.98453125 58.21484375 64.32453125 58.21484375 63.64453125 58.21484375 C63.41378906 57.65796875 63.18304688 57.10109375 62.9453125 56.52734375 C61.29596809 53.59517592 59.22903373 51.57231545 56.83203125 49.21484375 C55.97996094 48.36921875 55.12789063 47.52359375 54.25 46.65234375 C50.04889178 42.14794538 50.04889178 42.14794538 44.64453125 40.21484375 C44.64453125 39.55484375 44.64453125 38.89484375 44.64453125 38.21484375 C43.98453125 38.21484375 43.32453125 38.21484375 42.64453125 38.21484375 C42.64453125 37.55484375 42.64453125 36.89484375 42.64453125 36.21484375 C40.99453125 35.55484375 39.34453125 34.89484375 37.64453125 34.21484375 C37.64453125 33.55484375 37.64453125 32.89484375 37.64453125 32.21484375 C35.63254107 30.71349545 33.64088698 29.35914408 31.51953125 28.02734375 C30.88716553 27.62660645 30.2547998 27.22586914 29.60327148 26.81298828 C23.16730281 22.80516044 16.49568083 19.46329861 9.64453125 16.21484375 C8.46246094 15.62832031 7.28039062 15.04179688 6.0625 14.4375 C-49.56662399 -12.88503275 -120.67370389 -8.55157424 -172.20703125 26.13671875 Z " fill="#121212" transform="translate(322.35546875,66.78515625)"/>
<path d="M0 0 C3.93646804 0.69467083 6.71312684 1.65223346 10 4 C10 4.66 10 5.32 10 6 C11.32 6.66 12.64 7.32 14 8 C14 8.66 14 9.32 14 10 C14.66 10 15.32 10 16 10 C18.04169485 12.90548882 19 14.40142046 19 18 C19.66 18 20.32 18 21 18 C27.26257453 35.47695217 27.94998633 53.57023585 22.5 71.4375 C22.11884033 72.7054541 22.11884033 72.7054541 21.72998047 73.99902344 C18.75605359 83.43246619 14.47797076 92.20327522 10 101 C9.34 101 8.68 101 8 101 C7.90460938 101.5465625 7.80921875 102.093125 7.7109375 102.65625 C4.63665374 112.7912514 -4.80378481 121.58029987 -12 129 C-12.72703125 129.7734375 -13.4540625 130.546875 -14.203125 131.34375 C-16 133 -16 133 -18 133 C-18 133.66 -18 134.32 -18 135 C-20.08203125 136.7265625 -20.08203125 136.7265625 -22.8125 138.625 C-23.70582031 139.25664062 -24.59914063 139.88828125 -25.51953125 140.5390625 C-28 142 -28 142 -31 142 C-31 142.66 -31 143.32 -31 144 C-32.32 144 -33.64 144 -35 144 C-35 144.66 -35 145.32 -35 146 C-42.11339953 149.12431665 -48.72837543 150.42471252 -56.4375 150.5 C-57.20626465 150.51804687 -57.9750293 150.53609375 -58.76708984 150.5546875 C-62.61510186 150.51422648 -64.6081179 150.23688011 -67.97265625 148.203125 C-70.40928459 145.5552283 -70.93148885 143.44013649 -71.13671875 139.875 C-70.42325621 124.87190205 -65.82514941 109.74537096 -58 97 C-57.41347656 96.03320312 -56.82695312 95.06640625 -56.22265625 94.0703125 C-48.942495 82.60666391 -39.74567266 73.40396934 -29.62890625 64.47265625 C-26.93706242 62.06249491 -26.93706242 62.06249491 -24.77734375 59.18359375 C-23.89755859 58.10271484 -23.89755859 58.10271484 -23 57 C-22.34 57 -21.68 57 -21 57 C-20.34 55.35 -19.68 53.7 -19 52 C-18.34 52 -17.68 52 -17 52 C-16.566875 50.88625 -16.566875 50.88625 -16.125 49.75 C-15.17697356 47.43260203 -14.15154089 45.22082885 -13 43 C-12.34 43 -11.68 43 -11 43 C-10.867146 42.4227417 -10.73429199 41.8454834 -10.59741211 41.25073242 C-10.0191882 39.07229098 -9.2910211 37.07415159 -8.44140625 34.98828125 C-7.98604492 33.85036133 -7.98604492 33.85036133 -7.52148438 32.68945312 C-6.8894836 31.12296648 -6.25414386 29.5578222 -5.61523438 27.99414062 C-2.66683467 20.59509105 -0.92418524 13.40068599 -0.375 5.4375 C-0.30023438 4.40496094 -0.22546875 3.37242187 -0.1484375 2.30859375 C-0.07496094 1.16583984 -0.07496094 1.16583984 0 0 Z " fill="#050505" transform="translate(287,168)"/>
<path d="M0 0 C2 2 2 2 2.08422852 4.02026367 C1.38975321 10.39968721 0.00017757 16.24084954 -2.0625 22.3125 C-2.36760498 23.2202417 -2.67270996 24.1279834 -2.98706055 25.06323242 C-5.6462736 32.63093477 -8.93080936 39.71886493 -14 46 C-14.66 46 -15.32 46 -16 46 C-16.226875 46.53625 -16.45375 47.0725 -16.6875 47.625 C-18.45570089 50.82460161 -20.53670203 53.29037223 -23 56 C-23.66 56 -24.32 56 -25 56 C-25 56.66 -25 57.32 -25 58 C-26.609375 59.5859375 -26.609375 59.5859375 -28.75 61.375 C-31.06903702 63.33757727 -33.25219284 65.2588295 -35.375 67.4375 C-37 69 -37 69 -39 69 C-39 69.66 -39 70.32 -39 71 C-39.66 71 -40.32 71 -41 71 C-41.268125 71.57234375 -41.53625 72.1446875 -41.8125 72.734375 C-43.04132636 75.07884634 -44.42522176 77.12404938 -46 79.25 C-46.515625 79.95640625 -47.03125 80.6628125 -47.5625 81.390625 C-48.036875 81.92171875 -48.51125 82.4528125 -49 83 C-49.66 83 -50.32 83 -51 83 C-51.27070313 83.71671875 -51.54140625 84.4334375 -51.8203125 85.171875 C-52.99988229 87.99971781 -54.36985306 90.58284843 -55.875 93.25 C-63.55251346 107.20742131 -69.03468329 121.98765925 -69.625 138 C-69.66367188 138.87011719 -69.70234375 139.74023438 -69.7421875 140.63671875 C-69.83540887 142.75750486 -69.91874136 144.87872185 -70 147 C-73.16143514 148.02221993 -73.6828574 148.1620951 -76.8125 146.5625 C-80.77567085 143.67374375 -84.11199396 139.94751122 -87 136 C-87 135.34 -87 134.68 -87 134 C-87.66 134 -88.32 134 -89 134 C-98.59484113 118.57971961 -101.97575838 98.84162645 -98 81 C-97.12450999 78.28975101 -96.14574427 75.64264982 -95.11328125 72.98828125 C-93.4830909 68.61250715 -92.22046912 64.13807658 -90.9296875 59.65234375 C-90 57 -90 57 -88 55 C-87.32858558 53.45687527 -86.70979763 51.890487 -86.125 50.3125 C-84.42962682 45.92110106 -82.44502083 42.01681993 -80 38 C-79.34 38 -78.68 38 -78 38 C-77.79375 37.34 -77.5875 36.68 -77.375 36 C-75.50875748 31.92819814 -73.02438473 28.31203002 -70 25 C-69.34 25 -68.68 25 -68 25 C-67.76152344 24.42894531 -67.52304688 23.85789063 -67.27734375 23.26953125 C-62.67618445 15.09438277 -52.89904272 9.57880777 -45 5 C-44.34644531 4.61070312 -43.69289062 4.22140625 -43.01953125 3.8203125 C-30.3963168 -3.12380121 -13.30825377 -6.78459996 0 0 Z " fill="#060606" transform="translate(281,163)"/>
<path d="M0 0 C3.86437926 0.70689865 6.93983105 2.44824539 10.375 4.3125 C11.00768799 4.6542627 11.64037598 4.99602539 12.29223633 5.34814453 C14.53118048 6.55994556 16.76578488 7.77950224 19 9 C20.91275198 10.04298422 22.82551286 11.08595212 24.73828125 12.12890625 C27.6885037 13.73787687 30.63809378 15.34794104 33.58544922 16.9621582 C34.48924316 17.45675537 35.39303711 17.95135254 36.32421875 18.4609375 C37.12947998 18.90228027 37.93474121 19.34362305 38.7644043 19.79833984 C40.82495257 20.90590986 42.90161504 21.96625667 45 23 C45 23.66 45 24.32 45 25 C44.34 25 43.68 25 43 25 C42.896875 25.556875 42.79375 26.11375 42.6875 26.6875 C41.86866423 29.44176578 40.54146219 31.58727657 39 34 C33.93368821 33.44260617 30.12591069 31.02168625 25.8125 28.5 C24.38161965 27.67689341 22.95063494 26.85396821 21.51953125 26.03125 C20.57750854 25.48307617 20.57750854 25.48307617 19.61645508 24.92382812 C18.43096438 24.24630255 17.22128755 23.61064378 16 23 C16.33 23.33 16.66 23.66 17 24 C20 27.72 20 27.72 20 30 C20.66 30 21.32 30 22 30 C22 30.66 22 31.32 22 32 C22.58265625 32.24492187 23.1653125 32.48984375 23.765625 32.7421875 C26.36302236 34.20435874 27.83975831 35.84740414 29.75 38.125 C30.36359375 38.84945312 30.9771875 39.57390625 31.609375 40.3203125 C32.29773438 41.15175781 32.29773438 41.15175781 33 42 C29.375 48.875 29.375 48.875 26 50 C23.94702148 49.56274414 23.94702148 49.56274414 21.62109375 48.78515625 C20.78255859 48.51123047 19.94402344 48.23730469 19.08007812 47.95507812 C18.20802734 47.66052734 17.33597656 47.36597656 16.4375 47.0625 C14.70782526 46.48848726 12.9773904 45.91675838 11.24609375 45.34765625 C10.47966553 45.08992432 9.7132373 44.83219238 8.92358398 44.56665039 C7.01446992 43.90580834 7.01446992 43.90580834 5 44 C10.61 47.63 16.22 51.26 22 55 C21 60 21 60 20 62 C19.34 62 18.68 62 18 62 C17.67 63.32 17.34 64.64 17 66 C13.47551493 65.33298297 10.81699862 63.89642169 7.75 62.0625 C6.85796875 61.53785156 5.9659375 61.01320313 5.046875 60.47265625 C4.37140625 59.98667969 3.6959375 59.50070312 3 59 C3 58.34 3 57.68 3 57 C2.236875 56.71125 1.47375 56.4225 0.6875 56.125 C-2 55 -2 55 -5 53 C-5 52.34 -5 51.68 -5 51 C-5.68449219 50.77570313 -6.36898438 50.55140625 -7.07421875 50.3203125 C-10.76952662 48.65273699 -13.65484933 46.38844769 -16.8125 43.875 C-17.40998047 43.40707031 -18.00746094 42.93914062 -18.62304688 42.45703125 C-20.08616792 41.30994435 -21.54366297 40.15568766 -23 39 C-21.8782037 37.2063257 -20.75245517 35.4151227 -19.625 33.625 C-18.99851562 32.62726563 -18.37203125 31.62953125 -17.7265625 30.6015625 C-16 28 -16 28 -14 26 C-8.72572547 26.36215368 -4.00847135 27.82971121 0.9375 29.5625 C1.62134766 29.79646484 2.30519531 30.03042969 3.00976562 30.27148438 C4.67508501 30.84211829 6.33782493 31.42027098 8 32 C8.33 31.67 8.66 31.34 9 31 C8.34 30.38125 7.68 29.7625 7 29.125 C5 27 5 27 5 25 C4.34 25 3.68 25 3 25 C3 24.34 3 23.68 3 23 C2.34 23 1.68 23 1 23 C1 22.34 1 21.68 1 21 C0.34 21 -0.32 21 -1 21 C-1 20.34 -1 19.68 -1 19 C-1.61875 18.7525 -2.2375 18.505 -2.875 18.25 C-5.51242825 16.69857162 -6.17377015 15.95082088 -7 13 C-5.98613427 10.5453777 -4.97276745 8.50453746 -3.625 6.25 C-3.28210938 5.64800781 -2.93921875 5.04601562 -2.5859375 4.42578125 C-1.73822182 2.94227881 -0.87094495 1.46998513 0 0 Z " fill="#131313" transform="translate(355,287)"/>
<path d="M0 0 C0.89541504 0.00451172 1.79083008 0.00902344 2.71337891 0.01367188 C3.73310791 0.02237305 3.73310791 0.02237305 4.7734375 0.03125 C5.06173697 5.25974487 5.34642696 10.48841993 5.62792969 15.71728516 C5.72396892 17.49207728 5.82095453 19.26681847 5.91894531 21.04150391 C6.91986317 39.19080016 6.91986317 39.19080016 6.7734375 48.03125 C3.1434375 48.36125 -0.4865625 48.69125 -4.2265625 49.03125 C-4.35933594 47.67128906 -4.49210937 46.31132812 -4.62890625 44.91015625 C-4.80705977 43.13799751 -4.9854578 41.36586333 -5.1640625 39.59375 C-5.29458008 38.24700195 -5.29458008 38.24700195 -5.42773438 36.87304688 C-5.55825195 35.59204102 -5.55825195 35.59204102 -5.69140625 34.28515625 C-5.80923462 33.09901733 -5.80923462 33.09901733 -5.92944336 31.88891602 C-6.04207749 30.02021652 -6.04207749 30.02021652 -7.2265625 29.03125 C-9.49705595 36.74535721 -9.49705595 36.74535721 -10.8515625 44.65625 C-11.2265625 48.03125 -11.2265625 48.03125 -12.2265625 49.03125 C-14.07943752 49.10351502 -15.93490128 49.1150622 -17.7890625 49.09375 C-18.80097656 49.08472656 -19.81289063 49.07570313 -20.85546875 49.06640625 C-22.02916016 49.04900391 -22.02916016 49.04900391 -23.2265625 49.03125 C-25.36374762 42.92500679 -27.08284669 36.82979557 -28.578125 30.53515625 C-29.12720607 28.05604723 -29.12720607 28.05604723 -30.2265625 26.03125 C-30.17326782 27.01520752 -30.17326782 27.01520752 -30.11889648 28.01904297 C-29.96162667 30.98117662 -29.812742 33.94367329 -29.6640625 36.90625 C-29.60798828 37.93878906 -29.55191406 38.97132813 -29.49414062 40.03515625 C-29.44580078 41.02128906 -29.39746094 42.00742187 -29.34765625 43.0234375 C-29.3005249 43.93464355 -29.25339355 44.84584961 -29.20483398 45.78466797 C-29.2265625 48.03125 -29.2265625 48.03125 -30.2265625 50.03125 C-33.8565625 50.03125 -37.4865625 50.03125 -41.2265625 50.03125 C-41.2265625 49.37125 -41.2265625 48.71125 -41.2265625 48.03125 C-41.8865625 47.70125 -42.5465625 47.37125 -43.2265625 47.03125 C-42.5665625 47.03125 -41.9065625 47.03125 -41.2265625 47.03125 C-41.28714844 46.44972168 -41.34773437 45.86819336 -41.41015625 45.26904297 C-42.8815488 30.80695201 -43.4817786 16.56438917 -43.2265625 2.03125 C-35.3065625 1.53625 -35.3065625 1.53625 -27.2265625 1.03125 C-23.8386535 8.936371 -20.82809985 16.8342273 -18.2265625 25.03125 C-17.88882812 23.80148437 -17.55109375 22.57171875 -17.203125 21.3046875 C-16.75268761 19.67185198 -16.30216212 18.03904076 -15.8515625 16.40625 C-15.62984375 15.59800781 -15.408125 14.78976562 -15.1796875 13.95703125 C-13.97634403 9.60375928 -12.70520725 5.30135492 -11.2265625 1.03125 C-7.43635397 0.23331136 -3.85797984 -0.02525682 0 0 Z " fill="#101010" transform="translate(276.2265625,355.96875)"/>
<path d="M0 0 C0 0.66 0 1.32 0 2 C0.66 2 1.32 2 2 2 C2 2.66 2 3.32 2 4 C2.66 4 3.32 4 4 4 C8.50339944 11.50566573 10.37550271 17.61271593 10.4375 26.375 C10.47037109 27.18710938 10.50324219 27.99921875 10.53710938 28.8359375 C10.59198072 35.06134102 9.07573869 39.25452902 5 44 C-0.17913514 48.08483401 -6.54945591 48.80105083 -13 49 C-18.98640243 47.81158826 -23.11211862 44.62549517 -26.7890625 39.8515625 C-31.45656167 32.7148057 -34.06275768 23.53527262 -33 15 C-31.53914682 8.95115481 -28.79299982 3.3375464 -23.3203125 -0.03515625 C-16.03506621 -3.28479931 -7.21208418 -3.30938415 0 0 Z M-17 11 C-18.8763098 19.75611239 -16.80651386 27.05597106 -13 35 C-11.89350443 36.31534788 -11.89350443 36.31534788 -9.125 36.3125 C-5.97996456 36.32212679 -5.97996456 36.32212679 -4.265625 34.33984375 C-1.55215746 29.32327877 -4.19183219 22.71374242 -5.7421875 17.5078125 C-6.81272863 14.49484621 -7.71889779 12.28110221 -10 10 C-12.78302919 9.79127281 -14.48718205 9.74359102 -17 11 Z " fill="#0E0E0E" transform="translate(226,93)"/>
<path d="M0 0 C4.55347017 3.48872839 6.85543267 8.44585611 7.9453125 13.953125 C8.64954902 24.70627498 8.26114649 35.41798534 0.9453125 43.953125 C-4.58761136 48.52380124 -9.61884168 48.39449058 -16.65234375 48.38671875 C-21.56640848 47.7604717 -25.93938094 45.93379449 -29.0546875 41.953125 C-29.0546875 41.293125 -29.0546875 40.633125 -29.0546875 39.953125 C-29.7146875 39.953125 -30.3746875 39.953125 -31.0546875 39.953125 C-32.6338301 36.44945136 -33.31021576 33.7004014 -33.3203125 29.86328125 C-33.32289063 28.91388672 -33.32546875 27.96449219 -33.328125 26.98632812 C-33.32039062 26.00599609 -33.31265625 25.02566406 -33.3046875 24.015625 C-33.31242188 23.03916016 -33.32015625 22.06269531 -33.328125 21.05664062 C-33.31431 15.9623605 -33.08657965 11.71839587 -31.0546875 6.953125 C-30.3946875 6.953125 -29.7346875 6.953125 -29.0546875 6.953125 C-29.0546875 5.963125 -29.0546875 4.973125 -29.0546875 3.953125 C-28.3946875 3.953125 -27.7346875 3.953125 -27.0546875 3.953125 C-27.0546875 3.293125 -27.0546875 2.633125 -27.0546875 1.953125 C-26.3946875 1.953125 -25.7346875 1.953125 -25.0546875 1.953125 C-25.0546875 1.293125 -25.0546875 0.633125 -25.0546875 -0.046875 C-16.82383501 -3.50271826 -8.19089649 -4.17330848 0 0 Z M-17.0546875 11.953125 C-19.91921564 18.39831332 -19.86309935 26.03381498 -19.0546875 32.953125 C-17.91043012 34.96952561 -17.91043012 34.96952561 -16.0546875 35.953125 C-12.40926905 35.71835301 -12.40926905 35.71835301 -9.0546875 34.953125 C-6.68887857 30.27828655 -6.68790645 25.94853341 -6.6796875 20.828125 C-6.65519531 20.01730469 -6.63070313 19.20648438 -6.60546875 18.37109375 C-6.47834323 13.67934891 -6.47834323 13.67934891 -8.953125 9.8984375 C-12.68472871 8.21990944 -14.20581836 9.19328302 -17.0546875 11.953125 Z " fill="#101010" transform="translate(275.0546875,91.046875)"/>
<path d="M0 0 C8.3150358 4.6372315 8.3150358 4.6372315 11 7 C11 7.66 11 8.32 11 9 C13.475 9.99 13.475 9.99 16 11 C16 11.66 16 12.32 16 13 C16.5775 13.2475 17.155 13.495 17.75 13.75 C21.22797553 15.68220863 23.38852083 17.89351388 25.3125 21.375 C26.45854447 25.75080617 25.15139825 29.72337792 24 34 C23.34 34 22.68 34 22 34 C21.79375 34.5775 21.5875 35.155 21.375 35.75 C19.41551398 38.95643167 17.30874115 40.25198581 14 42 C11.66768162 42.06881445 9.33204731 42.07745827 7 42 C6.90912109 43.66289062 6.90912109 43.66289062 6.81640625 45.359375 C6.73197049 46.8229282 6.64732401 48.28646925 6.5625 49.75 C6.52318359 50.47960937 6.48386719 51.20921875 6.44335938 51.9609375 C6.23852902 55.4272973 5.9147998 58.65333026 5 62 C2.33333333 60.66666667 -0.33333333 59.33333333 -3 58 C-3 57.34 -3 56.68 -3 56 C-4.32 55.34 -5.64 54.68 -7 54 C-6.34 47.4 -5.68 40.8 -5 34 C-5.66 34 -6.32 34 -7 34 C-7 33.34 -7 32.68 -7 32 C-7.66 32 -8.32 32 -9 32 C-9.2475 32.53625 -9.495 33.0725 -9.75 33.625 C-11.30652537 36.5823982 -13.03435673 39.29724051 -15 42 C-15.66 42 -16.32 42 -17 42 C-17.33 42.99 -17.66 43.98 -18 45 C-21.99500618 43.6302836 -24.80009492 41.74277578 -28 39 C-27.36567062 35.83548038 -26.26817072 33.48312221 -24.5625 30.75 C-24.13066406 30.04359375 -23.69882813 29.3371875 -23.25390625 28.609375 C-22.84011719 28.07828125 -22.42632812 27.5471875 -22 27 C-21.34 27 -20.68 27 -20 27 C-20 26.34 -20 25.68 -20 25 C-19.34 25 -18.68 25 -18 25 C-17.62875 23.9171875 -17.62875 23.9171875 -17.25 22.8125 C-15.88745796 19.74678041 -14.14629658 17.56170882 -12 15 C-11.67 14.34 -11.34 13.68 -11 13 C-10.34 13 -9.68 13 -9 13 C-8.7525 12.278125 -8.505 11.55625 -8.25 10.8125 C-6.87730408 7.72393418 -5.27646704 5.48988582 -3 3 C-2.34 3 -1.68 3 -1 3 C-0.67 2.01 -0.34 1.02 0 0 Z M3 17 C1.53909212 18.5354878 1.53909212 18.5354878 0.3125 20.5 C-0.34298828 21.47453125 -0.34298828 21.47453125 -1.01171875 22.46875 C-1.33785156 22.9740625 -1.66398437 23.479375 -2 24 C0.57784846 26.64752004 2.91648098 28.94432065 6 31 C8.4478925 30.77051008 9.79095318 30.14417022 11.8125 28.75 C13.21306541 27.02469971 13.21306541 27.02469971 13.0625 24.625 C11.50511484 20.77734255 9.39810026 19.37867018 6 17 C5.01 17 4.02 17 3 17 Z " fill="#121212" transform="translate(165,323)"/>
<path d="M0 0 C4 5.41176471 4 5.41176471 4 8 C4.66 8 5.32 8 6 8 C7.34412438 9.7802972 8.60036819 11.62733747 9.8125 13.5 C10.52277344 14.59441406 11.23304688 15.68882812 11.96484375 16.81640625 C12.63644531 17.86699219 13.30804688 18.91757812 14 20 C14.51691406 20.79277344 15.03382813 21.58554687 15.56640625 22.40234375 C19.05122326 27.82201438 21.78408435 32.33528305 21 39 C18.37374929 46.84730003 13.13161979 51.45644976 6 55.3125 C2.2768886 57.00221979 -0.84701393 58.07416047 -5 58 C-9.721148 55.97050833 -12.96962845 53.81311427 -15 49 C-15.66 49 -16.32 49 -17 49 C-18.285793 47.15582272 -19.47674818 45.24531433 -20.625 43.3125 C-21.33547154 42.12341938 -22.04642367 40.93462581 -22.7578125 39.74609375 C-23.12422852 39.12976074 -23.49064453 38.51342773 -23.86816406 37.87841797 C-24.98905812 36.01815937 -26.14000693 34.18076649 -27.3046875 32.34765625 C-27.67255371 31.7652417 -28.04041992 31.18282715 -28.41943359 30.58276367 C-29.45445599 28.94697929 -30.49277789 27.31328402 -31.53125 25.6796875 C-33 23 -33 23 -33 20 C-29.37 18.35 -25.74 16.7 -22 15 C-20.65828736 16.93170681 -19.32687117 18.87056876 -18 20.8125 C-17.2575 21.89144531 -16.515 22.97039062 -15.75 24.08203125 C-14 27 -14 27 -14 30 C-13.34 30 -12.68 30 -12 30 C-11.20724852 31.4160599 -10.41584688 32.83287553 -9.625 34.25 C-9.18414062 35.03890625 -8.74328125 35.8278125 -8.2890625 36.640625 C-7.46654971 38.14607265 -6.68992217 39.67814731 -5.9765625 41.23828125 C-5.11293146 43.22619148 -5.11293146 43.22619148 -2.75 43.9375 C1.00551293 44.02285257 2.93898904 43.15662136 6 41 C7.43866353 38.29561997 7.43866353 38.29561997 7 35 C5.8619331 32.76955501 4.57978982 30.7743094 3.12890625 28.734375 C2 27 2 27 2 25 C1.34 25 0.68 25 0 25 C-1.19542478 23.31874988 -2.30712843 21.57751917 -3.375 19.8125 C-5.7036769 15.98095453 -8.1348876 12.45201868 -11 9 C-9.55536047 5.62917442 -7.75336875 3.41962708 -5 1 C-2 0 -2 0 0 0 Z " fill="#161616" transform="translate(330,328)"/>
<path d="M0 0 C8.8293034 1.76586068 17.38564937 4.40877168 26 7 C26 7.66 26 8.32 26 9 C27.423125 8.9690625 27.423125 8.9690625 28.875 8.9375 C32 9 32 9 34 10 C33.60404157 11.48484412 33.18249294 12.9628831 32.75 14.4375 C32.51796875 15.26121094 32.2859375 16.08492188 32.046875 16.93359375 C31 19 31 19 29.20507812 19.70507812 C26.61321707 20.05173093 25.13102432 19.64585851 22.671875 18.78515625 C21.87265625 18.51123047 21.0734375 18.23730469 20.25 17.95507812 C19.425 17.66052734 18.6 17.36597656 17.75 17.0625 C16.90953125 16.77181641 16.0690625 16.48113281 15.203125 16.18164062 C13.13194269 15.46378767 11.06466738 14.73633881 9 14 C9 16.31 9 18.62 9 21 C14.61 22.65 20.22 24.3 26 26 C24.125 34.875 24.125 34.875 23 36 C16.55419534 35.45142088 9.80736871 33.90368436 4 31 C3.01 33.64 2.02 36.28 1 39 C1.81726563 39.10183594 2.63453125 39.20367187 3.4765625 39.30859375 C7.65895125 40.1293064 11.4143137 41.51904991 15.375 43.0625 C16.11105469 43.34416016 16.84710938 43.62582031 17.60546875 43.91601562 C19.4055736 44.60566618 21.2030621 45.30213932 23 46 C22.01 48.97 21.02 51.94 20 55 C14.78959352 54.3901995 10.04630349 53.24188509 5.0625 51.625 C4.3610083 51.40166992 3.6595166 51.17833984 2.93676758 50.94824219 C-1.76674525 49.43743342 -6.40005032 47.80390183 -11 46 C-11.99 45.67 -12.98 45.34 -14 45 C-14.35484318 41.09672505 -13.4725858 38.5153075 -11.84790039 34.99145508 C-10.93149938 32.83911329 -10.26890131 30.69681326 -9.62109375 28.44921875 C-7.9938945 22.92382709 -6.20330221 17.46166549 -4.375 12 C-3.90707031 10.59041016 -3.90707031 10.59041016 -3.4296875 9.15234375 C-2.98109375 7.80849609 -2.98109375 7.80849609 -2.5234375 6.4375 C-2.25450684 5.63183594 -1.98557617 4.82617188 -1.70849609 3.99609375 C-1 2 -1 2 0 0 Z " fill="#151515" transform="translate(198,347)"/>
<path d="M0 0 C3.06856045 1.7013188 4.20113429 4.26038349 5.9375 7.26171875 C7.93401257 10.67372753 9.91162607 14.03591609 12.125 17.3125 C15.27146311 22.10678753 15.59733977 26.48881453 14.9375 32.07421875 C13.58863635 36.02831618 11.38386041 38.67976072 8.25 41.44921875 C3.06442945 43.99308355 -1.58469102 44.56006365 -7.25 43.44921875 C-14.07067762 40.11466525 -17.43476145 35.54315076 -21.0625 29.07421875 C-22.32707031 29.8321875 -22.32707031 29.8321875 -23.6171875 30.60546875 C-24.71289062 31.25515625 -25.80859375 31.90484375 -26.9375 32.57421875 C-28.57332031 33.54875 -28.57332031 33.54875 -30.2421875 34.54296875 C-33.0625 36.07421875 -33.0625 36.07421875 -35.0625 36.07421875 C-36.60546875 34.2109375 -36.60546875 34.2109375 -38.25 31.76171875 C-38.80042969 30.96121094 -39.35085937 30.16070312 -39.91796875 29.3359375 C-40.29566406 28.58957031 -40.67335938 27.84320313 -41.0625 27.07421875 C-39.66388785 22.87838229 -36.6911643 21.72949495 -33.0625 19.57421875 C-31.60721658 18.68890613 -30.15281984 17.80213465 -28.69921875 16.9140625 C-27.94044434 16.45241699 -27.18166992 15.99077148 -26.39990234 15.51513672 C-22.51604266 13.12088773 -18.69664112 10.62865652 -14.875 8.13671875 C-12.85189737 6.81754498 -10.82838756 5.49971043 -8.79541016 4.19580078 C-7.2885929 3.22055163 -5.80420196 2.21082166 -4.32421875 1.1953125 C-2.0625 0.07421875 -2.0625 0.07421875 0 0 Z M-3.0625 16.07421875 C-5.7025 18.05421875 -8.3425 20.03421875 -11.0625 22.07421875 C-9.82591941 25.49859577 -8.70969559 28.52156586 -6.0625 31.07421875 C-3.10529372 31.74102243 -3.10529372 31.74102243 -0.0625 31.07421875 C2.31469693 29.19919944 2.31469693 29.19919944 3.9375 27.07421875 C2.66028474 22.08146818 0.76419043 19.49809967 -3.0625 16.07421875 Z " fill="#111111" transform="translate(143.0625,290.92578125)"/>
<path d="M0 0 C3.27680478 1.53081499 4.20388155 4.45639285 5.64453125 7.59765625 C5.97461182 8.28899658 6.30469238 8.98033691 6.64477539 9.69262695 C7.38369277 11.24278559 8.1166442 12.79579715 8.84472656 14.35107422 C10.20787119 17.23928397 11.60736919 20.10817169 13.01171875 22.9765625 C14.01491542 25.03747211 15.0175234 27.09866838 16.01953125 29.16015625 C16.50429932 30.15160645 16.98906738 31.14305664 17.48852539 32.16455078 C17.94090576 33.10540527 18.39328613 34.04625977 18.859375 35.015625 C19.26406006 35.8511792 19.66874512 36.6867334 20.08569336 37.54760742 C21.10124428 40.01942003 21.64824147 42.34146753 22.08203125 44.97265625 C20.48580469 46.00586106 18.87974019 47.02388054 17.26953125 48.03515625 C16.37621094 48.60363281 15.48289063 49.17210937 14.5625 49.7578125 C12.08203125 50.97265625 12.08203125 50.97265625 9.08203125 49.97265625 C7.77929688 47.91894531 7.77929688 47.91894531 6.48828125 45.23828125 C6.01519531 44.27148438 5.54210937 43.3046875 5.0546875 42.30859375 C4.56871094 41.29023438 4.08273438 40.271875 3.58203125 39.22265625 C2.6149995 37.22703105 1.64630193 35.23221203 0.67578125 33.23828125 C0.24974609 32.34915039 -0.17628906 31.46001953 -0.61523438 30.54394531 C-1.94238169 27.9244709 -3.27610924 25.40914069 -4.91796875 22.97265625 C-5.57796875 22.97265625 -6.23796875 22.97265625 -6.91796875 22.97265625 C-6.91796875 23.63265625 -6.91796875 24.29265625 -6.91796875 24.97265625 C-7.57796875 24.97265625 -8.23796875 24.97265625 -8.91796875 24.97265625 C-8.91796875 25.63265625 -8.91796875 26.29265625 -8.91796875 26.97265625 C-10.77734375 26.71484375 -10.77734375 26.71484375 -12.91796875 25.97265625 C-14.18359375 24.23046875 -14.18359375 24.23046875 -15.16796875 22.09765625 C-15.503125 21.39898437 -15.83828125 20.7003125 -16.18359375 19.98046875 C-16.91796875 17.97265625 -16.91796875 17.97265625 -16.91796875 14.97265625 C-15.421875 13.54296875 -15.421875 13.54296875 -13.48046875 12.09765625 C-10.46845091 9.67216899 -10.46845091 9.67216899 -8.98046875 6.09765625 C-8.95984375 5.39640625 -8.93921875 4.69515625 -8.91796875 3.97265625 C-7.92796875 3.97265625 -6.93796875 3.97265625 -5.91796875 3.97265625 C-5.91796875 3.31265625 -5.91796875 2.65265625 -5.91796875 1.97265625 C-3.85687873 0.72128017 -2.43717699 -0.0347459 0 0 Z " fill="#141414" transform="translate(174.91796875,102.02734375)"/>
<path d="M0 0 C0.32613281 1.00160156 0.65226562 2.00320313 0.98828125 3.03515625 C1.42952315 4.3776582 1.87093871 5.72010307 2.3125 7.0625 C2.52583984 7.71927734 2.73917969 8.37605469 2.95898438 9.05273438 C4.00284725 12.21548308 5.11292926 15.26186049 6.43359375 18.32421875 C8.45051866 23.05720214 10.10752723 27.87665486 11.75 32.75 C12.07871094 33.69488281 12.40742188 34.63976562 12.74609375 35.61328125 C13.05160156 36.51949219 13.35710937 37.42570312 13.671875 38.359375 C13.9512793 39.17889648 14.23068359 39.99841797 14.51855469 40.84277344 C15 43 15 43 14 46 C11.49609375 46.94921875 11.49609375 46.94921875 8.4375 47.6875 C7.42558594 47.93886719 6.41367187 48.19023437 5.37109375 48.44921875 C4.58863281 48.63097656 3.80617188 48.81273437 3 49 C-0.25085652 41.69594789 -2.95375086 34.35708925 -5.21166992 26.69726562 C-6.52641749 22.28994271 -8.13964501 18.19471823 -10 14 C-11.46437855 10.14637223 -12.24282524 7.12802907 -12 3 C-10.75336669 2.49166409 -9.50250613 1.99368855 -8.25 1.5 C-7.55390625 1.2215625 -6.8578125 0.943125 -6.140625 0.65625 C-4 0 -4 0 0 0 Z " fill="#161616" transform="translate(295,350)"/>
<path d="M0 0 C3.18970398 1.73983854 5.44695493 3.44695493 8 6 C9.56374524 12.43134322 9.31113775 17.29114181 6 23 C3.64500093 25.79656139 2.48686467 26.83771178 -1 28 C-7.14825898 28.46401955 -10.7311149 27.14168334 -15.8125 23.8125 C-18.18670782 20.18870911 -18.30845292 15.9354573 -17.64453125 11.76953125 C-16.98776354 9.05851268 -16.25006476 6.50012952 -15 4 C-14.34 4 -13.68 4 -13 4 C-13 3.34 -13 2.68 -13 2 C-8.67473064 -0.44641932 -4.88187563 -0.71070633 0 0 Z M-5 8 C-7.40814077 11.51187196 -8.36629408 13.72656908 -8 18 C-6.68 18.33 -5.36 18.66 -4 19 C-1.64551835 16.44931155 -1.01672076 15.28982642 -0.8125 11.75 C-0.9053125 10.38875 -0.9053125 10.38875 -1 9 C-2.32 8.67 -3.64 8.34 -5 8 Z " fill="#181818" transform="translate(308,96)"/>
<path d="M0 0 C3.85544798 1.99657127 5.59805092 3.39707638 8 7 C8.265625 9.55859375 8.265625 9.55859375 8.25 12.4375 C8.25515625 13.38496094 8.2603125 14.33242187 8.265625 15.30859375 C7.99748089 18.02552453 7.38531142 19.67465583 6 22 C5.34 22 4.68 22 4 22 C3.773125 22.61875 3.54625 23.2375 3.3125 23.875 C1.52150464 26.77470677 0.30703231 27.20918793 -3 28 C-7.635531 27.92642014 -10.68097439 27.61309565 -14.375 24.75 C-16.94109123 22.06171395 -18.21085048 20.5950145 -19 17 C-18.6506177 13.57605347 -17.89381636 10.31988934 -17 7 C-16.34 7 -15.68 7 -15 7 C-15 6.01 -15 5.02 -15 4 C-14.34 4 -13.68 4 -13 4 C-13 3.34 -13 2.68 -13 2 C-8.74748617 -0.83500922 -4.99342406 -0.64456329 0 0 Z M-6.6875 9 C-8.56811458 11.86569841 -8.6824515 14.63398589 -9 18 C-7.16299211 18.77242269 -7.16299211 18.77242269 -5 19 C-3.1488697 18.07006533 -3.1488697 18.07006533 -2 16 C-1.26958147 12.38976901 -1.26958147 12.38976901 -1 9 C-3.9094413 7.88012535 -3.9094413 7.88012535 -6.6875 9 Z " fill="#161616" transform="translate(330,131)"/>
<path d="M0 0 C1.03125 0.4125 2.0625 0.825 3.125 1.25 C3.125 2.57 3.125 3.89 3.125 5.25 C1.5 6.8203125 1.5 6.8203125 -0.875 8.375 C-1.78894531 8.97957031 -2.70289063 9.58414063 -3.64453125 10.20703125 C-7.95661243 12.9340185 -12.2767365 15.64742586 -16.61474609 18.33300781 C-24.92024323 23.48464229 -33.17795347 28.80780169 -41.0625 34.5859375 C-43.875 36.25 -43.875 36.25 -47.75 35.5 C-49.296875 34.88125 -49.296875 34.88125 -50.875 34.25 C-50.875 32.93 -50.875 31.61 -50.875 30.25 C-48.62818954 28.43981668 -46.50056623 26.94554001 -44.0625 25.4375 C-43.38485596 25.0038916 -42.70721191 24.5702832 -42.0090332 24.12353516 C-40.62953854 23.24267457 -39.24630235 22.36764588 -37.859375 21.49853516 C-36.05930714 20.36596293 -34.27663168 19.21183361 -32.5 18.04296875 C-25.15924134 13.25 -25.15924134 13.25 -22.875 13.25 C-22.875 12.59 -22.875 11.93 -22.875 11.25 C-20.85740724 9.86702098 -18.85714192 8.60721995 -16.75 7.375 C-15.600881 6.6912482 -14.45244008 6.00635552 -13.3046875 5.3203125 C-12.73347168 4.98386719 -12.16225586 4.64742188 -11.57373047 4.30078125 C-9.89340811 3.26138668 -8.28862683 2.10298999 -6.6875 0.9453125 C-3.875 -0.75 -3.875 -0.75 0 0 Z " fill="#212121" transform="translate(337.875,109.75)"/>
</svg>
