<svg width="37" height="40" viewBox="0 0 37 40" fill="none" xmlns="http://www.w3.org/2000/svg">
<path d="M13.4258 5.42039C11.0816 6.7447 9.0723 7.88635 8.95814 7.96246L8.75264 8.09185L8.73742 12.9401L8.71459 17.7883L4.47526 20.1553C2.1463 21.4568 0.182664 22.568 0.121776 22.6212C0.015222 22.7126 0 23.2682 0 27.8043C0 32.5384 0.00761099 32.8885 0.136998 33.0026C0.258774 33.1168 8.4482 37.7443 8.95814 37.9878C9.18647 38.0944 9.23213 38.0944 9.49091 37.9726C9.64313 37.8965 11.5915 36.8157 13.8216 35.5599C16.0516 34.3117 17.8934 33.2842 17.9087 33.2842C17.9315 33.2842 19.8951 34.3802 22.2698 35.7198C24.652 37.0593 26.6613 38.1553 26.7374 38.1553C26.9201 38.1553 35.688 33.2386 35.8706 33.0407C35.9924 32.8961 36 32.5384 36 27.9261C36 23.7781 35.9848 22.9409 35.8934 22.8115C35.8326 22.7278 33.8613 21.5861 31.5171 20.2694L27.2474 17.872V13.0314V8.19079L27.0799 8.03857C26.981 7.94724 24.9412 6.78276 22.5362 5.43561C19.2558 3.60136 18.1142 2.99248 17.9315 3.00009C17.7717 3.0077 16.3256 3.78402 13.4258 5.42039ZM21.8055 6.14343C23.929 7.33836 25.6795 8.32779 25.7023 8.34301C25.7175 8.36584 23.9822 9.35527 21.8512 10.5578L17.9619 12.7346L14.0803 10.5502L10.1987 8.36584L10.4499 8.22124C10.5793 8.14512 12.3222 7.16331 14.3087 6.04449C16.2951 4.91806 17.9315 3.99713 17.9315 3.98952C17.9391 3.98191 19.682 4.95612 21.8055 6.14343ZM13.6313 11.4102L17.5053 13.587V17.8491C17.5053 21.8677 17.4977 22.1113 17.3759 22.058C17.2541 22.0124 13.6617 20.0107 10.8685 18.4276L9.66596 17.7502V13.488C9.66596 11.1515 9.6888 9.2335 9.71163 9.2335C9.73446 9.2335 11.5002 10.2153 13.6313 11.4102ZM26.2427 13.5109L26.2199 17.7806L22.3839 19.9422C20.2757 21.1295 18.5175 22.0961 18.4795 22.0961C18.449 22.0961 18.4186 20.1857 18.4186 17.8491V13.5946L22.285 11.4179C24.4085 10.2229 26.1666 9.24111 26.2047 9.24111C26.2351 9.2335 26.2503 11.1591 26.2427 13.5109ZM13.0909 20.8022C15.1611 21.9667 16.866 22.9485 16.8736 22.9866C16.8812 23.017 15.1611 24.014 13.0452 25.1938L9.19408 27.3477L5.38097 25.209C3.28034 24.0293 1.53742 23.0475 1.50698 23.017C1.44609 22.9637 9.04186 18.6787 9.2093 18.6787C9.27019 18.6787 11.0207 19.6301 13.0909 20.8022ZM30.6495 20.8935C33.5797 22.5375 34.455 23.0627 34.3865 23.1312C34.3332 23.1768 32.5903 24.1663 30.5125 25.3231L26.7374 27.4314L22.8406 25.247L18.9438 23.0627L19.8038 22.5832C20.2757 22.3168 22.0034 21.3502 23.6321 20.4293C25.2685 19.5159 26.6461 18.7549 26.707 18.7549C26.7679 18.7472 28.5412 19.7138 30.6495 20.8935ZM4.86342 26.0157L8.66892 28.1468L8.67653 32.4242C8.67653 34.7836 8.66892 36.7092 8.6537 36.7092C8.63848 36.7092 6.90317 35.7426 4.78731 34.5553L0.951374 32.4014L0.928541 28.1164C0.92093 25.4297 0.936152 23.8466 0.981818 23.8618C1.02748 23.8694 2.7704 24.8436 4.86342 26.0157ZM17.4901 28.1164L17.4672 32.3861L13.6237 34.5477C11.5078 35.735 9.75729 36.7092 9.72685 36.7092C9.6888 36.7092 9.66596 34.7912 9.66596 32.4546V28.2001L13.5323 26.0233C15.6558 24.8284 17.414 23.8542 17.452 23.8466C17.4825 23.8466 17.4977 25.7646 17.4901 28.1164ZM22.3839 26.0995L26.2579 28.2762V32.5307C26.2579 34.8673 26.2351 36.7853 26.2047 36.7853C26.1666 36.7853 24.4161 35.8111 22.3002 34.6238L18.4567 32.4622L18.4338 28.1925C18.4262 25.8407 18.4414 23.9227 18.4643 23.9227C18.4871 23.9227 20.2529 24.9045 22.3839 26.0995ZM34.9953 28.2001L34.9725 32.4851L31.167 34.6314C29.074 35.8111 27.3387 36.7777 27.3006 36.7777C27.2702 36.7853 27.255 34.8597 27.2626 32.5079L27.2854 28.2305L31.0909 26.0842C33.1839 24.9045 34.9192 23.9303 34.9573 23.9303C34.9877 23.9227 35.003 25.8483 34.9953 28.2001Z" fill="#5B786F"/>
<path d="M10.8988 11.6005C10.8075 11.6386 10.6933 11.7527 10.6553 11.8593C10.5563 12.1257 10.5563 16.8293 10.6553 17.1185C10.7161 17.2935 10.9825 17.4838 11.9948 18.0775C13.3648 18.8919 13.6083 18.9604 13.8214 18.6255C14.065 18.2601 13.9204 18.0927 12.7102 17.3773L11.6066 16.7227L11.5838 14.2948C11.5686 12.2322 11.5457 11.8517 11.4468 11.7375C11.2946 11.5701 11.1119 11.5244 10.8988 11.6005Z" fill="#5B786F"/>
<path d="M14.3084 18.7473C14.1333 18.9223 14.1105 19.1963 14.2551 19.3714C14.3616 19.5084 15.0466 19.927 15.2902 20.0031C15.5566 20.0868 15.8306 19.8661 15.8306 19.554C15.8306 19.2648 15.7316 19.1659 15.138 18.831C14.6432 18.557 14.5139 18.5418 14.3084 18.7473Z" fill="#5B786F"/>
<path d="M20.3368 26.6018C20.1465 26.7007 20.0552 26.9519 20.1313 27.1878C20.1998 27.4009 21.1588 27.9565 21.4556 27.9565C21.6231 27.9565 21.722 27.9033 21.8133 27.7587C22.0341 27.4314 21.8894 27.2107 21.2349 26.8377C20.6184 26.4876 20.5956 26.48 20.3368 26.6018Z" fill="#5B786F"/>
<path d="M22.7035 27.8881C22.4828 27.9718 22.361 28.2153 22.4219 28.4513C22.4599 28.6035 22.673 28.7633 23.3733 29.1515L24.279 29.6614V31.998C24.279 34.1138 24.2942 34.3498 24.416 34.4868C24.6215 34.7227 24.8346 34.7532 25.0629 34.5705L25.2684 34.4183V31.8077C25.2684 29.4179 25.2608 29.1895 25.139 29.0754C24.9792 28.9384 23.4265 28.0479 23.0993 27.9185C22.9623 27.8576 22.81 27.8424 22.7035 27.8881Z" fill="#5B786F"/>
<path d="M36 39L1 1" stroke="#5B786F" stroke-width="1.5" stroke-linecap="round"/>
<path d="M0.999998 39L36 1" stroke="#5B786F" stroke-width="1.5" stroke-linecap="round"/>
</svg>
