<svg width="42" height="45" viewBox="0 0 42 45" fill="none" xmlns="http://www.w3.org/2000/svg">
<path d="M19.0432 0.0356207C19.0051 0.0737166 18.9766 0.768973 18.9766 1.58804C18.9766 3.33094 19.0909 3.70238 19.729 4.13096C20.4814 4.62621 21.929 4.53097 22.4814 3.95001C22.8814 3.53095 22.9862 3.07379 23.0433 1.54042L23.1005 0.0737166H22.4719H21.8338V1.37851C21.8338 2.87379 21.71 3.29285 21.2338 3.41666C20.9004 3.50238 20.4337 3.34999 20.3099 3.12141C20.2528 3.02617 20.2147 2.30234 20.2147 1.51185V0.0737166H19.8623C19.6623 0.0737166 19.4147 0.0451446 19.3099 0.0165725C19.2051 -0.0119996 19.0813 -0.00247574 19.0432 0.0356207Z" fill="#5B786F"/>
<path d="M15.5953 0.626159C14.6048 0.864261 13.7762 1.06427 13.7572 1.07379C13.7191 1.10236 13.9 1.88333 13.9572 1.95C13.9858 1.97857 14.2905 1.93095 14.6239 1.85476L15.2429 1.7119L15.4334 2.54049C15.5382 2.98812 15.7001 3.71195 15.7953 4.14053C15.9382 4.77865 16.0049 4.93103 16.1477 4.93103C16.443 4.93103 17.1668 4.7215 17.1668 4.63578C17.1668 4.58816 17.0144 3.931 16.8334 3.15956C16.6525 2.39763 16.5001 1.69285 16.5001 1.59761C16.5001 1.49285 16.5953 1.40713 16.7668 1.36904C16.9096 1.33094 17.1763 1.26427 17.3668 1.20713L17.7192 1.12141L17.6239 0.711875C17.5763 0.492823 17.5097 0.283293 17.4716 0.254721C17.4335 0.226149 16.5953 0.397582 15.5953 0.626159Z" fill="#5B786F"/>
<path d="M24.4526 2.42622C24.1479 3.52149 23.9002 4.44532 23.8907 4.49294C23.8812 4.56913 24.6812 4.82628 24.9384 4.83581C24.9955 4.83581 25.1003 4.6358 25.1669 4.37865C25.3288 3.79768 25.3574 3.76911 25.7003 3.8834C25.9479 3.96912 26.0146 4.08341 26.1955 4.6358L26.4051 5.28344L26.986 5.44535C27.3003 5.54059 27.586 5.59773 27.6051 5.56916C27.6241 5.55011 27.5384 5.21677 27.4051 4.82628C27.2717 4.44532 27.1956 4.11198 27.2432 4.09293C27.6527 3.95959 28.0051 3.66435 28.1956 3.31196C28.567 2.56908 28.4146 1.83573 27.7956 1.35953C27.4813 1.12143 25.5574 0.454743 25.1574 0.454743C25.0526 0.454743 24.8717 0.940469 24.4526 2.42622ZM26.8336 1.96907C27.2622 2.21669 27.2813 2.81671 26.8622 3.03576C26.6146 3.1691 25.6431 2.97862 25.6431 2.79766C25.6431 2.73099 25.7098 2.45479 25.7955 2.1786C25.9384 1.69287 25.9479 1.68335 26.2431 1.74049C26.4146 1.77859 26.6717 1.88335 26.8336 1.96907Z" fill="#5B786F"/>
<path d="M10.4518 2.52142C10.1946 2.65476 9.96605 2.76905 9.96605 2.77857C9.95653 2.77857 10.0041 3.73098 10.0803 4.88339C10.147 6.0358 10.2042 7.09297 10.2137 7.24535V7.5025L10.7851 7.21678L11.347 6.93106L11.2994 6.48343L11.2423 6.02627L12.0709 5.61674L12.8899 5.21673L13.2328 5.49293L13.5757 5.77865L14.1376 5.49293L14.69 5.21673L14.3852 4.95006C13.4709 4.15956 11.0708 2.26427 11.0042 2.26427C10.9661 2.2738 10.7185 2.38809 10.4518 2.52142ZM11.6804 4.13099C11.9375 4.35957 12.128 4.56909 12.109 4.58814C11.9947 4.69291 11.2327 5.03577 11.2042 4.99768C11.1185 4.91196 11.0518 3.69288 11.128 3.69288C11.1756 3.70241 11.4232 3.89289 11.6804 4.13099Z" fill="#5B786F"/>
<path d="M29.7861 4.2263C28.7956 4.93108 27.9384 5.55014 27.9003 5.58824C27.8527 5.63586 28.0622 5.80729 28.3575 5.97872L28.8908 6.28349L29.2146 6.03587C29.3861 5.90253 29.567 5.78824 29.6146 5.78824C29.6527 5.78824 30.0147 5.97872 30.4051 6.21682L31.1194 6.64541V7.13113C31.1194 7.61686 31.129 7.62638 31.5766 7.91211C31.8242 8.06449 32.0528 8.16925 32.0814 8.14068C32.1195 8.10259 32.6814 3.87391 32.6909 3.57866C32.6909 3.51199 31.7766 2.93103 31.6623 2.93103C31.6242 2.94055 30.7861 3.52152 29.7861 4.2263ZM31.4433 4.9787C31.3861 5.35014 31.329 5.65491 31.3099 5.67395C31.2909 5.693 31.0813 5.57871 30.8337 5.42633L30.3861 5.15013L30.948 4.71202C31.2528 4.48345 31.5099 4.29297 31.5195 4.30249C31.529 4.31201 31.4909 4.61678 31.4433 4.9787Z" fill="#5B786F"/>
<path d="M6.52925 5.04527L6.12924 5.43576L6.89116 6.2453C7.3007 6.69293 7.63404 7.06437 7.62452 7.07389C7.60547 7.08342 6.93878 7.00722 6.13876 6.90246L4.68158 6.70245L4.32919 7.05484L3.98633 7.40723L4.36729 7.80724C4.57682 8.03582 5.23398 8.7406 5.83399 9.38824L6.91021 10.5502L7.29117 10.2359C7.51023 10.0549 7.70071 9.86444 7.71976 9.80729C7.7388 9.75015 7.42451 9.35014 7.0245 8.92156C6.62449 8.5025 6.31972 8.13106 6.33877 8.11201C6.35782 8.09297 7.00545 8.15963 7.7769 8.27392L9.17694 8.4644L9.54837 8.15011C9.74838 7.97868 9.90076 7.80724 9.90076 7.77867C9.87219 7.67391 7.0626 4.64526 6.9864 4.64526C6.95783 4.64526 6.7483 4.82622 6.52925 5.04527Z" fill="#5B786F"/>
<path d="M33.8437 7.03583L32.377 8.5692L33.5294 9.72161L34.6913 10.874L35.0246 10.5502L35.358 10.2264L34.6246 9.48351L33.8818 8.74064L35.0723 7.55013L36.2532 6.35962L35.8342 5.93104C35.6056 5.69294 35.3866 5.50246 35.358 5.50246C35.3294 5.50246 34.6437 6.18819 33.8437 7.03583Z" fill="#5B786F"/>
<path d="M20.5296 9.78831C20.1105 9.95974 17.4152 13.7789 15.8914 16.3599C15.4437 17.1218 15.0437 17.798 15.0056 17.8647C14.9485 17.9504 14.558 17.7314 13.5484 17.0552C12.7865 16.5409 11.996 15.9885 11.796 15.8361C11.2722 15.4361 10.7103 15.4361 10.3103 15.8361C10.0531 16.0932 9.99597 16.2742 9.79596 17.3123C9.42453 19.1885 9.32929 20.3505 9.38643 21.9315C9.51024 25.1506 10.6722 27.7507 12.4627 28.7983C12.7865 28.9888 12.9294 29.1602 13.158 29.646C13.5484 30.4936 13.9485 31.0555 14.7294 31.8746C15.8628 33.0556 17.1866 33.827 18.7676 34.2365C19.6057 34.4461 19.8248 34.4651 21.0724 34.427C22.0915 34.3889 22.6249 34.3318 23.1106 34.1794C25.9392 33.3318 28.0345 31.2746 28.9298 28.4554C29.2822 27.3792 29.3584 25.5792 29.1298 24.3315C28.5012 20.9886 26.044 16.2742 22.2725 11.1693C21.2153 9.74069 21.0248 9.5883 20.5296 9.78831ZM21.9582 12.5503C24.263 15.7218 26.1583 18.979 27.2059 21.6172C28.5583 25.0077 28.5488 27.4935 27.1583 29.865C26.7393 30.5603 25.3678 31.9317 24.6725 32.3508C21.0629 34.4651 16.5485 33.3222 14.4151 29.7602C14.2913 29.5602 14.2151 29.3793 14.2437 29.3507C14.2627 29.3317 14.5961 29.3602 14.977 29.4174C15.5104 29.5126 15.7294 29.5126 15.9866 29.4174C16.3009 29.3031 16.3199 29.3126 16.9009 29.7983C17.72 30.4841 18.3962 30.9031 19.1105 31.1698C19.92 31.4746 20.7962 31.627 21.101 31.5127C21.5105 31.3508 21.6058 30.6745 21.2534 30.3984C21.1772 30.3412 20.7962 30.265 20.4058 30.2364C19.6629 30.1698 18.9295 29.9602 18.2152 29.5983C17.9771 29.484 17.7771 29.3793 17.7581 29.3602C17.7485 29.3507 17.9295 28.9412 18.1581 28.4459C18.6629 27.3792 18.8724 26.6078 18.9486 25.5601C19.101 23.3982 18.0819 21.0172 16.3104 19.3695C15.9961 19.0838 15.739 18.8171 15.739 18.7885C15.739 18.4742 18.6248 13.9313 20.0057 12.0836C20.7677 11.055 20.8153 10.9979 20.9486 11.1788C21.0248 11.2741 21.482 11.8931 21.9582 12.5503ZM11.7293 17.1028C12.0722 17.3599 13.0246 18.0171 13.8342 18.56C14.6437 19.1028 15.5675 19.8076 15.8914 20.1314C18.1581 22.3981 18.72 25.303 17.4343 28.0935C17.2723 28.4459 17.1009 28.7412 17.0533 28.7412C16.9009 28.7412 15.8152 27.5602 15.0913 26.5983C14.3866 25.6554 13.4151 23.9315 12.9675 22.8363C12.8532 22.5505 12.6151 21.8648 12.4437 21.3124C12.0341 20.0076 12.0341 20.3791 12.4437 21.9981C12.977 24.1411 13.7294 25.8268 14.9294 27.5983C15.7199 28.7793 15.7294 28.7507 14.5866 28.5126C13.158 28.2078 12.0627 27.3507 11.4246 26.0554C10.5103 24.1696 10.215 21.9886 10.5484 19.379C10.6912 18.1504 10.9769 16.6456 11.0531 16.6456C11.0722 16.6456 11.377 16.8552 11.7293 17.1028Z" fill="#5B786F"/>
<path d="M12.0341 20.1314C12.0341 20.2362 12.0627 20.2648 12.0912 20.1886C12.1198 20.1219 12.1103 20.0362 12.0817 20.0076C12.0531 19.9695 12.0246 20.0267 12.0341 20.1314Z" fill="#5B786F"/>
<path d="M3.23342 11.3312C2.91912 11.7502 2.25244 12.9788 1.76671 14.0265C1.01431 15.6646 0.433344 17.7028 0.157147 19.6933C-0.0523823 21.16 -0.0523823 23.7696 0.157147 25.2649C0.566681 28.1507 1.66195 31.1793 3.13817 33.4746C3.39532 33.8841 3.50961 33.9794 3.71914 33.9794C4.02391 33.9794 4.21439 33.827 4.21439 33.5794C4.21439 33.4936 4.02391 33.0936 3.78581 32.7127C0.0238101 26.5125 -0.00476203 18.4361 3.71914 12.3217C4.12868 11.655 4.20487 11.3407 4.00486 11.1407C3.79533 10.9312 3.47152 11.0169 3.23342 11.3312Z" fill="#5B786F"/>
<path d="M37.3481 11.3502C37.2529 11.5407 37.3291 11.7217 37.8719 12.7027C41.4054 19.0457 41.3006 26.5697 37.6053 32.6936C37.1291 33.4937 37.1672 33.8842 37.7481 33.8842C37.9481 33.8842 38.0624 33.7794 38.3291 33.3318C39.8244 30.9127 40.8149 28.1316 41.2244 25.2649C41.4339 23.7506 41.4339 21.16 41.2244 19.6457C40.8244 16.8552 39.7291 13.7789 38.3577 11.6455C38.0719 11.1979 37.9862 11.1217 37.7386 11.1217C37.5291 11.1217 37.4243 11.1788 37.3481 11.3502Z" fill="#5B786F"/>
<path d="M5.6625 36.1889L4.21484 37.7414L4.65295 38.1604L5.09106 38.5795L5.6244 38.0461L6.16727 37.5033L6.80539 38.1414C7.51017 38.8366 7.57683 38.8461 7.9578 38.3414L8.12923 38.1033L7.45302 37.4556L6.77681 36.7985L7.11016 36.4651L7.43397 36.1413L8.23399 36.8747L9.02449 37.608L9.34831 37.2652L9.6626 36.9128L9.44355 36.6937C8.37685 35.6746 7.24349 34.646 7.18635 34.646C7.14825 34.646 6.46252 35.3413 5.6625 36.1889Z" fill="#5B786F"/>
<path d="M33.9568 34.9223C33.4425 35.1604 32.7282 35.827 32.4901 36.2842C32.1186 37.0176 32.3663 37.8557 33.0425 38.1414C33.471 38.3128 33.8711 38.2176 34.7473 37.7319C35.3949 37.3699 35.5949 37.3318 35.6806 37.5604C35.8044 37.8747 35.1568 38.5414 34.5282 38.7414C34.3282 38.8081 34.1377 38.8747 34.0996 38.9033C34.0615 38.9224 34.1092 39.1319 34.1949 39.3605C34.3854 39.8748 34.5377 39.9033 35.2139 39.5129C35.7949 39.1795 36.4235 38.57 36.633 38.1319C36.9283 37.5033 36.7664 36.7509 36.2711 36.4175C35.8711 36.1604 35.3568 36.2271 34.5568 36.6461C33.7853 37.0556 33.5091 37.1128 33.4139 36.8747C33.2996 36.5794 33.8044 36.0366 34.4139 35.789C34.5949 35.7223 34.7568 35.6461 34.7758 35.6366C34.8235 35.5985 34.4806 34.7413 34.4139 34.7413C34.3854 34.7413 34.1758 34.827 33.9568 34.9223Z" fill="#5B786F"/>
<path d="M9.02402 39.0842C8.41449 40.1033 7.92876 40.9605 7.94781 40.97C7.95733 40.9891 8.59544 41.37 9.35737 41.8176L10.7384 42.6462L10.9479 42.2843C11.0717 42.0938 11.1669 41.8843 11.1669 41.8367C11.1669 41.7796 10.7764 41.5129 10.3098 41.2367L9.46213 40.7414L10.3288 39.3033C11.005 38.1699 11.1669 37.8461 11.0622 37.7795C10.986 37.7318 10.7479 37.589 10.5383 37.4652L10.1479 37.2175L9.02402 39.0842Z" fill="#5B786F"/>
<path d="M30.0626 38.008C29.3578 38.3128 28.0244 39.0652 28.0244 39.1509C28.0244 39.2271 29.9864 42.7319 30.0911 42.8367C30.1388 42.8938 31.1769 42.3319 31.1388 42.2652C30.6531 41.3509 30.634 41.3033 30.8245 41.1605C31.0912 40.97 31.2912 40.989 31.9102 41.3033L32.4531 41.5795L32.9579 41.2938C33.2245 41.1319 33.4531 40.9795 33.4531 40.9414C33.4531 40.9033 33.1484 40.7319 32.7864 40.5509C32.2817 40.3033 32.1293 40.189 32.1769 40.0747C32.4531 39.389 32.3864 38.8652 31.9578 38.3509C31.4626 37.7699 30.8626 37.6556 30.0626 38.008ZM31.015 39.1414C31.3197 39.5699 31.1293 39.9509 30.434 40.3033L30.1292 40.4557L29.8435 39.9414C29.6816 39.6652 29.5483 39.408 29.5483 39.3795C29.5483 39.2556 30.2721 38.9413 30.5673 38.9318C30.7769 38.9318 30.9197 38.9985 31.015 39.1414Z" fill="#5B786F"/>
<path d="M13.2336 41.3129C12.4145 42.2558 11.7383 43.0653 11.7383 43.1034C11.7383 43.1511 11.9859 43.2558 12.2907 43.3415L12.8335 43.4939L13.1002 43.1701C13.2526 42.9891 13.4145 42.8368 13.4717 42.8368C13.5288 42.8368 13.9193 42.9511 14.3574 43.0844L15.1479 43.332L15.205 43.7892L15.2717 44.2558L15.786 44.4178C16.0717 44.513 16.3384 44.5511 16.3765 44.5225C16.4241 44.4654 15.9574 39.9605 15.9003 39.9224C15.8241 39.8748 14.9193 39.5986 14.8336 39.5986C14.7765 39.5986 14.0526 40.37 13.2336 41.3129ZM15.0527 42.3129C15.0336 42.3415 14.786 42.2844 14.5193 42.1891L14.0431 42.0272L14.4812 41.4843L14.9288 40.932L15.0146 41.5986C15.0622 41.9701 15.0812 42.2939 15.0527 42.3129Z" fill="#5B786F"/>
<path d="M24.8816 39.97C24.1578 40.1891 23.472 40.8272 23.2625 41.4558C23.072 42.0177 23.1768 42.8463 23.5101 43.3701C24.4435 44.8939 27.0721 44.6082 27.7769 42.9129C28.215 41.8748 27.6817 40.551 26.6435 40.0652C26.2435 39.8843 25.3388 39.8367 24.8816 39.97ZM26.1102 41.0748C26.6912 41.37 26.8816 42.4082 26.4435 42.9225C25.6911 43.8177 24.4054 43.2653 24.4054 42.0367C24.4054 41.6462 24.453 41.532 24.7292 41.2558C24.9959 40.9891 25.1292 40.9319 25.4435 40.9319C25.6626 40.9319 25.9673 40.9986 26.1102 41.0748Z" fill="#5B786F"/>
<path d="M17.6824 40.6176C17.7205 40.7129 18.0919 41.7034 18.5205 42.8082L19.3015 44.8368H19.8539C20.1586 44.8368 20.4348 44.8368 20.4729 44.8463C20.511 44.8463 20.9777 43.9225 21.511 42.7701L22.4825 40.6938L21.9587 40.6176C21.4634 40.5414 21.1682 40.6272 21.1682 40.8367C21.1682 40.8748 20.911 41.4558 20.5872 42.132L20.0062 43.3606L19.4634 41.932L18.9205 40.5033L18.2729 40.4748C17.6824 40.4462 17.6252 40.4653 17.6824 40.6176Z" fill="#5B786F"/>
</svg>
