<svg width="38" height="40" viewBox="0 0 38 40" fill="none" xmlns="http://www.w3.org/2000/svg">
<path d="M18.6137 0.149821C18.4741 0.264775 18.2935 0.658902 17.965 1.6278L17.5217 2.94976H16.1176C14.8202 2.94976 14.6971 2.96619 14.4918 3.12219C14.3276 3.25357 14.2783 3.36031 14.2783 3.59843C14.2783 3.96793 14.303 3.99256 15.6496 4.95324L16.6431 5.6676L16.2407 6.87461C15.7974 8.19658 15.7563 8.53323 16.0026 8.77956C16.3311 9.108 16.6349 9.00947 17.7762 8.19658C18.3592 7.78603 18.8683 7.43296 18.9175 7.41654C18.9668 7.3919 19.5005 7.72855 20.1081 8.16373C21.2987 9.00947 21.5861 9.108 21.9145 8.77956C22.1609 8.53323 22.1198 8.19658 21.6764 6.87461C21.3069 5.76613 21.2823 5.65939 21.4054 5.55264C21.4876 5.49517 21.9966 5.11746 22.5386 4.73155C23.0887 4.33742 23.5567 3.95971 23.5896 3.88582C23.6881 3.62306 23.6306 3.34389 23.4336 3.15504C23.2365 2.94976 23.2119 2.94976 21.8078 2.94976H20.3791L20.026 1.77559C19.8289 1.13514 19.6155 0.511105 19.558 0.387939C19.3609 -0.0143986 18.9586 -0.12114 18.6137 0.149821ZM19.1639 3.43421C19.3691 4.11572 19.4923 4.20604 20.2888 4.26352L20.9456 4.30458L20.4694 4.63301C19.8454 5.05999 19.7879 5.23242 20.0014 5.97961C20.0917 6.29984 20.1492 6.56259 20.1327 6.56259C20.1081 6.56259 19.9521 6.45585 19.7879 6.32448C19.1228 5.80718 18.9914 5.79897 18.3017 6.24237C18.0225 6.42301 17.7762 6.55438 17.7598 6.53796C17.7434 6.52154 17.8008 6.31626 17.8911 6.08636C18.1867 5.31453 18.1211 5.10104 17.4313 4.6248L16.9633 4.30458L17.6448 4.26352C18.4331 4.21425 18.548 4.12393 18.7779 3.3521C18.8518 3.09756 18.9339 2.89229 18.9668 2.90871C18.9914 2.92513 19.0817 3.16325 19.1639 3.43421Z" fill="#5B786F"/>
<path d="M9.88481 5.01891C9.79449 5.06818 9.31004 5.51157 8.80918 6.00423L7.89776 6.90744L6.6579 6.2834C5.96818 5.93854 5.34414 5.65937 5.25382 5.65937C5.17171 5.65937 5.00749 5.73327 4.88433 5.8318C4.53947 6.10276 4.59694 6.40657 5.26203 7.74496L5.85322 8.92734L4.85148 10.003C3.75942 11.1689 3.68553 11.3332 4.05502 11.6944C4.30135 11.949 4.39988 11.949 5.94354 11.6944C6.61684 11.5877 7.17519 11.5056 7.1834 11.5138C7.19161 11.522 7.46257 12.0557 7.77459 12.688C8.39863 13.936 8.66138 14.2398 9.02266 14.1577C9.44963 14.0592 9.55637 13.8129 9.78628 12.3924C9.90124 11.6616 10.008 11.054 10.0244 11.0458C10.0408 11.0293 10.6566 10.9308 11.4038 10.8077C12.6273 10.6188 12.7751 10.5777 12.9393 10.3807C13.161 10.1261 13.1774 9.8716 12.9968 9.61706C12.9311 9.51032 12.3153 9.15725 11.642 8.81238L10.4103 8.19656L10.4596 7.93381C10.591 7.14556 10.8291 5.60189 10.8291 5.51157C10.8291 5.34735 10.3693 4.92038 10.1968 4.92038C10.1147 4.92038 9.97513 4.96965 9.88481 5.01891ZM9.15404 8.04055C9.03908 8.86165 9.11298 9.00124 9.79449 9.36252L10.3693 9.66633L9.7288 9.76486C9.00624 9.88802 8.8256 10.0358 8.73528 10.6106C8.6039 11.5138 8.62032 11.4974 8.36578 10.9637C7.97166 10.1426 7.86491 10.0851 6.92886 10.2082L6.4362 10.2739L6.87138 9.82233C7.38868 9.2722 7.41331 9.07514 7.05203 8.36899C6.91244 8.09803 6.83033 7.87633 6.86317 7.87633C6.90423 7.88454 7.13414 7.99129 7.38047 8.12266C8.02913 8.47573 8.19335 8.4511 8.7517 7.91739C9.01445 7.67106 9.22793 7.47399 9.22793 7.46578C9.23615 7.46578 9.19509 7.72854 9.15404 8.04055Z" fill="#5B786F"/>
<path d="M27.3499 4.97782C27.2924 5.00246 27.1939 5.11741 27.1282 5.24879C27.0215 5.45406 27.0297 5.59365 27.2103 6.61181C27.3253 7.24405 27.432 7.85167 27.4649 7.97483C27.5059 8.18832 27.4731 8.22116 26.3317 8.78772C24.9769 9.46102 24.7881 9.60882 24.7881 9.97831C24.7881 10.4956 24.9359 10.5777 26.4549 10.824C27.2103 10.9472 27.8508 11.0786 27.8754 11.1032C27.9083 11.1361 28.015 11.7026 28.1217 12.3677C28.3763 13.9853 28.3599 13.936 28.6965 14.092C29.1727 14.3219 29.3288 14.1741 30.0842 12.7865C30.4454 12.1214 30.7575 11.563 30.7821 11.5384C30.8067 11.5138 31.3815 11.5877 32.0548 11.6944C33.582 11.9407 33.6642 11.9407 33.8858 11.7108C34.2553 11.3249 34.1568 11.1278 33.0812 10.0522C32.5392 9.51028 32.0959 9.03405 32.0959 8.99299C32.0959 8.95194 32.375 8.36075 32.7199 7.68745C33.3768 6.37369 33.4178 6.17663 33.0648 5.88103C32.7774 5.64291 32.4653 5.71681 31.2009 6.34906L29.9856 6.96488L28.9675 5.93851C28.1053 5.06815 27.9165 4.92035 27.703 4.92856C27.5716 4.92856 27.4074 4.95319 27.3499 4.97782ZM29.8625 8.36896C29.9938 8.36896 30.3223 8.26222 30.585 8.12263C30.8478 7.99125 31.0777 7.8763 31.0941 7.8763C31.1023 7.8763 31.0038 8.098 30.8642 8.36896C30.5111 9.0751 30.5358 9.27217 31.0366 9.80588L31.4554 10.2575L30.7903 10.2C30.0021 10.1425 29.9446 10.1754 29.5915 10.9144C29.3288 11.4727 29.2877 11.4481 29.181 10.6762C29.1071 10.1261 28.8854 9.88799 28.3927 9.81409C27.4731 9.6745 27.4895 9.69093 28.0314 9.41996C28.754 9.05868 28.8115 8.98478 28.8115 8.50033C28.8115 8.27043 28.7786 7.94199 28.7376 7.76956L28.6637 7.45754L29.1399 7.90914C29.5012 8.254 29.6818 8.36896 29.8625 8.36896Z" fill="#5B786F"/>
<path d="M17.7927 12.885C15.3048 13.3366 13.2356 15.0199 11.7741 17.7706C11.5524 18.1729 11.3635 18.526 11.3471 18.5424C11.3389 18.5588 10.9447 18.4603 10.4849 18.3207C7.17591 17.319 4.45808 17.6556 2.43818 19.3224C1.46107 20.1353 0.598919 21.5394 0.229425 22.9435C-0.0251149 23.8877 -0.0743808 25.7927 0.114472 26.9422C0.68924 30.4647 3.04579 33.9872 6.44513 36.4095C10.6409 39.3983 15.157 39.8006 18.2525 37.4441L18.8109 37.0171L19.0983 37.247C20.6173 38.454 21.931 38.9713 23.6882 39.0534C25.3879 39.1355 26.9644 38.8399 28.6066 38.1502C33.1719 36.2124 37.0721 31.5075 37.885 26.9833C38.0738 25.9241 38.0246 24.1341 37.7782 23.2309C37.2445 21.3013 36.1196 19.8315 34.4692 18.9283C32.4657 17.828 29.7643 17.7295 27.0793 18.6738C26.7509 18.7887 26.4717 18.879 26.4635 18.879C26.4471 18.879 26.2746 18.5342 26.0694 18.1154C24.8131 15.5043 22.8342 13.6651 20.6009 13.0492C19.9111 12.8604 18.4085 12.7701 17.7927 12.885ZM18.7205 14.519C18.6384 14.7325 18.3839 15.2252 18.1622 15.6029C17.6613 16.424 17.4971 16.8838 17.4314 17.6392C17.3329 18.6902 17.6121 19.6755 18.31 20.6937C18.9176 21.5887 19.0983 22.5576 18.8355 23.4443C18.7698 23.666 18.5153 24.1833 18.2689 24.6021C17.6695 25.6038 17.4807 26.2361 17.4807 27.2132C17.4807 28.1574 17.6695 28.8225 18.1458 29.5615C19.1475 31.0888 19.2214 32.2055 18.4085 33.5028C17.9241 34.2828 17.5628 35.0464 17.5628 35.2764C17.5628 35.5227 17.4725 35.5145 16.7417 35.1942C15.0667 34.4635 13.679 33.0265 12.7594 31.0888C10.8134 26.9915 11.0269 21.4244 13.2685 17.7049C13.7693 16.8756 14.8614 15.7096 15.6086 15.2169C16.4543 14.6504 17.8666 14.1495 18.6466 14.1249L18.8766 14.1167L18.7205 14.519ZM21.0771 14.6504C22.67 15.3894 24.1398 16.9987 25.0348 19.0022C25.4453 19.9218 25.9134 21.408 26.0694 22.2866C26.2664 23.4033 26.2664 25.8994 26.0694 27.049C25.3961 31.0149 23.68 33.8394 21.192 35.0875C20.6501 35.3585 19.632 35.6294 19.1475 35.6294C18.8109 35.6294 18.7862 35.613 18.8437 35.4406C18.9258 35.1696 19.1886 34.6605 19.5416 34.1022C20.1246 33.1826 20.3381 32.1972 20.1903 31.1134C20.1082 30.4811 19.9932 30.2184 19.1639 28.6912C18.7616 27.9604 18.7616 27.944 18.7616 27.2132C18.7698 26.3428 18.8766 26.0144 19.4431 25.1276C20.0918 24.1094 20.2232 23.6825 20.2232 22.574C20.2232 21.4819 20.0836 21.0139 19.4924 20.1107C18.9915 19.3389 18.893 19.1254 18.8027 18.5588C18.6549 17.6392 18.8601 16.9166 19.5991 15.7671C19.7716 15.5043 19.985 15.0774 20.0589 14.8228C20.1493 14.5354 20.2478 14.363 20.3299 14.363C20.3956 14.363 20.7322 14.4944 21.0771 14.6504ZM8.65389 19.2239C9.12191 19.2896 10.6409 19.7166 10.838 19.8315C10.8626 19.8479 10.797 20.1682 10.6902 20.5377C10.3536 21.6954 10.1647 23.0174 10.1154 24.52L10.0662 25.9323L9.64742 25.571C9.04801 25.0455 8.28439 24.6678 7.35655 24.4625C6.4205 24.249 5.78826 23.8795 5.31202 23.2555C4.94253 22.7628 4.80294 22.418 4.58945 21.4326C4.49913 21.0139 4.33491 20.4966 4.21996 20.2995C4.10501 20.0943 4.01469 19.9136 4.01469 19.8972C4.01469 19.8808 4.19533 19.774 4.40881 19.6673C5.50908 19.1089 6.92958 18.9611 8.65389 19.2239ZM32.7121 19.618C33.4921 19.8644 34.2803 20.2913 34.7648 20.7183L35.1753 21.0796L34.7976 21.252C34.5842 21.3505 34.1408 21.4737 33.8123 21.5394C32.7038 21.7529 31.9649 22.147 31.2177 22.9106C30.6593 23.4772 30.257 24.2572 30.0435 25.1604C29.9532 25.5628 29.7725 26.0636 29.6576 26.2853C29.2634 27.0161 28.3767 27.673 27.5473 27.8618L27.3092 27.9193L27.3667 27.5252C27.728 24.9552 27.572 22.6725 26.874 20.2585C26.8412 20.1517 26.9726 20.0778 27.4981 19.9054C28.8036 19.4702 29.4769 19.3717 30.8646 19.4045C31.8992 19.4292 32.244 19.462 32.7121 19.618ZM3.22643 21.3834C3.29212 21.6133 3.39065 22.0074 3.43992 22.2702C3.76836 23.9534 5.22991 25.3821 6.99527 25.7434C7.82458 25.9158 8.38293 26.195 8.85095 26.663C9.36824 27.1803 9.57352 27.5827 9.77058 28.5105C9.99228 29.5205 10.411 30.3498 11.0022 30.9574C11.265 31.2201 11.6016 31.6717 11.7412 31.9509C12.4309 33.3304 13.8186 34.9643 14.9189 35.7033C15.3705 36.0071 16.093 36.3766 16.8238 36.6804C17.0209 36.7543 17.0044 36.7708 16.4954 37.0171C15.5265 37.4687 15.042 37.559 13.5394 37.5508C12.3324 37.5426 12.0943 37.518 11.3635 37.3209C9.03159 36.6886 7.10201 35.5309 5.20528 33.6177C3.31675 31.7292 2.15079 29.7586 1.53497 27.4185C1.30506 26.5645 1.28043 26.351 1.27222 25.1604C1.27222 24.1341 1.29685 23.7317 1.41181 23.313C1.61708 22.574 2.05226 21.72 2.49566 21.1535C2.85694 20.7019 2.88978 20.6772 2.98831 20.825C3.04579 20.9071 3.15253 21.1617 3.22643 21.3834ZM36.1525 22.5904C37.3102 25.2179 36.5137 28.9457 34.1161 32.1644C32.0387 34.9561 28.6887 37.1238 25.6588 37.6493C24.148 37.9203 22.3662 37.6658 21.0771 37.0171L20.568 36.7625L21.151 36.5408C22.2841 36.0975 23.4419 35.2846 24.2794 34.3485C25.2565 33.2647 26.25 31.5075 26.7262 30.0295L26.9562 29.3234L27.3256 29.2659C27.5227 29.2331 27.9743 29.1099 28.311 28.9867C29.9039 28.4284 30.9795 27.2214 31.3162 25.612C31.5461 24.5118 31.9238 23.8877 32.6956 23.3622C33.0323 23.1323 33.3525 23.0092 34.149 22.8121C34.7155 22.6725 35.3231 22.4754 35.5038 22.3687C35.6844 22.262 35.8651 22.1798 35.8979 22.1716C35.9308 22.1634 36.0457 22.3605 36.1525 22.5904Z" fill="#5B786F"/>
</svg>
